<svg xmlns="http://www.w3.org/2000/svg" width="900" height="400" fill="none"><g clip-path="url(#a)"><rect width="900" height="400" fill="#fff" rx="12"/><g opacity=".25"><path stroke="#43DC36" stroke-width="3" d="M-2.75-4.68a5.5 5.5 0 0 1 5.5 0L21.73 6.278a5.5 5.5 0 0 1 2.75 4.763V32.96a5.5 5.5 0 0 1-2.75 4.763L2.75 48.68a5.5 5.5 0 0 1-5.5 0l-18.98-10.958a5.5 5.5 0 0 1-2.75-4.764V11.043a5.5 5.5 0 0 1 2.75-4.764L-2.75-4.68ZM117.25-4.68a5.5 5.5 0 0 1 5.5 0l18.981 10.958a5.502 5.502 0 0 1 2.75 4.763V32.96a5.502 5.502 0 0 1-2.75 4.763L122.75 48.68a5.5 5.5 0 0 1-5.5 0L98.27 37.722a5.5 5.5 0 0 1-2.75-4.764V11.043a5.5 5.5 0 0 1 2.75-4.764L117.25-4.68ZM237.25-4.68a5.5 5.5 0 0 1 5.5 0l18.981 10.958a5.502 5.502 0 0 1 2.75 4.763V32.96a5.502 5.502 0 0 1-2.75 4.763L242.75 48.68a5.5 5.5 0 0 1-5.5 0l-18.981-10.958a5.502 5.502 0 0 1-2.75-4.764V11.043a5.502 5.502 0 0 1 2.75-4.764L237.25-4.68ZM357.25-4.68a5.5 5.5 0 0 1 5.5 0l18.981 10.958a5.502 5.502 0 0 1 2.75 4.763V32.96a5.502 5.502 0 0 1-2.75 4.763L362.75 48.68a5.5 5.5 0 0 1-5.5 0l-18.981-10.958a5.502 5.502 0 0 1-2.75-4.764V11.043a5.502 5.502 0 0 1 2.75-4.764L357.25-4.68ZM477.25-4.68a5.5 5.5 0 0 1 5.5 0l18.981 10.958a5.502 5.502 0 0 1 2.75 4.763V32.96a5.502 5.502 0 0 1-2.75 4.763L482.75 48.68a5.5 5.5 0 0 1-5.5 0l-18.981-10.958a5.502 5.502 0 0 1-2.75-4.764V11.043a5.502 5.502 0 0 1 2.75-4.764L477.25-4.68ZM597.25-4.68a5.5 5.5 0 0 1 5.5 0l18.981 10.958a5.502 5.502 0 0 1 2.75 4.763V32.96a5.502 5.502 0 0 1-2.75 4.763L602.75 48.68a5.5 5.5 0 0 1-5.5 0l-18.981-10.958a5.502 5.502 0 0 1-2.75-4.764V11.043a5.502 5.502 0 0 1 2.75-4.764L597.25-4.68ZM717.25-4.68a5.5 5.5 0 0 1 5.5 0l18.981 10.958a5.502 5.502 0 0 1 2.75 4.763V32.96a5.502 5.502 0 0 1-2.75 4.763L722.75 48.68a5.5 5.5 0 0 1-5.5 0l-18.981-10.958a5.502 5.502 0 0 1-2.75-4.764V11.043a5.502 5.502 0 0 1 2.75-4.764L717.25-4.68ZM837.25-4.68a5.5 5.5 0 0 1 5.5 0l18.981 10.958a5.502 5.502 0 0 1 2.75 4.763V32.96a5.502 5.502 0 0 1-2.75 4.763L842.75 48.68a5.5 5.5 0 0 1-5.5 0l-18.981-10.958a5.502 5.502 0 0 1-2.75-4.764V11.043a5.502 5.502 0 0 1 2.75-4.764L837.25-4.68ZM-2.75 135.32a5.497 5.497 0 0 1 5.5 0l18.98 10.958a5.5 5.5 0 0 1 2.75 4.763v21.918a5.5 5.5 0 0 1-2.75 4.763L2.75 188.68a5.497 5.497 0 0 1-5.5 0l-18.98-10.958a5.5 5.5 0 0 1-2.75-4.763v-21.918a5.5 5.5 0 0 1 2.75-4.763l18.98-10.958ZM117.25 135.32a5.497 5.497 0 0 1 5.5 0l18.981 10.958a5.502 5.502 0 0 1 2.75 4.763v21.918a5.502 5.502 0 0 1-2.75 4.763L122.75 188.68a5.497 5.497 0 0 1-5.5 0l-18.98-10.958a5.5 5.5 0 0 1-2.75-4.763v-21.918a5.5 5.5 0 0 1 2.75-4.763l18.98-10.958ZM237.25 135.32a5.497 5.497 0 0 1 5.5 0l18.981 10.958a5.502 5.502 0 0 1 2.75 4.763v21.918a5.502 5.502 0 0 1-2.75 4.763L242.75 188.68a5.497 5.497 0 0 1-5.5 0l-18.981-10.958a5.502 5.502 0 0 1-2.75-4.763v-21.918a5.502 5.502 0 0 1 2.75-4.763l18.981-10.958ZM357.25 135.32a5.497 5.497 0 0 1 5.5 0l18.981 10.958a5.502 5.502 0 0 1 2.75 4.763v21.918a5.502 5.502 0 0 1-2.75 4.763L362.75 188.68a5.497 5.497 0 0 1-5.5 0l-18.981-10.958a5.502 5.502 0 0 1-2.75-4.763v-21.918a5.502 5.502 0 0 1 2.75-4.763l18.981-10.958ZM477.25 135.32a5.497 5.497 0 0 1 5.5 0l18.981 10.958a5.502 5.502 0 0 1 2.75 4.763v21.918a5.502 5.502 0 0 1-2.75 4.763L482.75 188.68a5.497 5.497 0 0 1-5.5 0l-18.981-10.958a5.502 5.502 0 0 1-2.75-4.763v-21.918a5.502 5.502 0 0 1 2.75-4.763l18.981-10.958ZM597.25 135.32a5.497 5.497 0 0 1 5.5 0l18.981 10.958a5.502 5.502 0 0 1 2.75 4.763v21.918a5.502 5.502 0 0 1-2.75 4.763L602.75 188.68a5.497 5.497 0 0 1-5.5 0l-18.981-10.958a5.502 5.502 0 0 1-2.75-4.763v-21.918a5.502 5.502 0 0 1 2.75-4.763l18.981-10.958ZM717.25 135.32a5.497 5.497 0 0 1 5.5 0l18.981 10.958a5.502 5.502 0 0 1 2.75 4.763v21.918a5.502 5.502 0 0 1-2.75 4.763L722.75 188.68a5.497 5.497 0 0 1-5.5 0l-18.981-10.958a5.502 5.502 0 0 1-2.75-4.763v-21.918a5.502 5.502 0 0 1 2.75-4.763l18.981-10.958ZM837.25 135.32a5.497 5.497 0 0 1 5.5 0l18.981 10.958a5.502 5.502 0 0 1 2.75 4.763v21.918a5.502 5.502 0 0 1-2.75 4.763L842.75 188.68a5.497 5.497 0 0 1-5.5 0l-18.981-10.958a5.502 5.502 0 0 1-2.75-4.763v-21.918a5.502 5.502 0 0 1 2.75-4.763l18.981-10.958ZM-2.75 275.32a5.497 5.497 0 0 1 5.5 0l18.98 10.958a5.5 5.5 0 0 1 2.75 4.763v21.918a5.5 5.5 0 0 1-2.75 4.763L2.75 328.68a5.497 5.497 0 0 1-5.5 0l-18.98-10.958a5.5 5.5 0 0 1-2.75-4.763v-21.918a5.5 5.5 0 0 1 2.75-4.763l18.98-10.958ZM117.25 275.32a5.497 5.497 0 0 1 5.5 0l18.981 10.958a5.502 5.502 0 0 1 2.75 4.763v21.918a5.502 5.502 0 0 1-2.75 4.763L122.75 328.68a5.497 5.497 0 0 1-5.5 0l-18.98-10.958a5.5 5.5 0 0 1-2.75-4.763v-21.918a5.5 5.5 0 0 1 2.75-4.763l18.98-10.958ZM237.25 275.32a5.497 5.497 0 0 1 5.5 0l18.981 10.958a5.502 5.502 0 0 1 2.75 4.763v21.918a5.502 5.502 0 0 1-2.75 4.763L242.75 328.68a5.497 5.497 0 0 1-5.5 0l-18.981-10.958a5.502 5.502 0 0 1-2.75-4.763v-21.918a5.502 5.502 0 0 1 2.75-4.763l18.981-10.958ZM357.25 275.32a5.497 5.497 0 0 1 5.5 0l18.981 10.958a5.502 5.502 0 0 1 2.75 4.763v21.918a5.502 5.502 0 0 1-2.75 4.763L362.75 328.68a5.497 5.497 0 0 1-5.5 0l-18.981-10.958a5.502 5.502 0 0 1-2.75-4.763v-21.918a5.502 5.502 0 0 1 2.75-4.763l18.981-10.958ZM477.25 275.32a5.497 5.497 0 0 1 5.5 0l18.981 10.958a5.502 5.502 0 0 1 2.75 4.763v21.918a5.502 5.502 0 0 1-2.75 4.763L482.75 328.68a5.497 5.497 0 0 1-5.5 0l-18.981-10.958a5.502 5.502 0 0 1-2.75-4.763v-21.918a5.502 5.502 0 0 1 2.75-4.763l18.981-10.958ZM597.25 275.32a5.497 5.497 0 0 1 5.5 0l18.981 10.958a5.502 5.502 0 0 1 2.75 4.763v21.918a5.502 5.502 0 0 1-2.75 4.763L602.75 328.68a5.497 5.497 0 0 1-5.5 0l-18.981-10.958a5.502 5.502 0 0 1-2.75-4.763v-21.918a5.502 5.502 0 0 1 2.75-4.763l18.981-10.958ZM717.25 275.32a5.497 5.497 0 0 1 5.5 0l18.981 10.958a5.502 5.502 0 0 1 2.75 4.763v21.918a5.502 5.502 0 0 1-2.75 4.763L722.75 328.68a5.497 5.497 0 0 1-5.5 0l-18.981-10.958a5.502 5.502 0 0 1-2.75-4.763v-21.918a5.502 5.502 0 0 1 2.75-4.763l18.981-10.958ZM837.25 275.32a5.497 5.497 0 0 1 5.5 0l18.981 10.958a5.502 5.502 0 0 1 2.75 4.763v21.918a5.502 5.502 0 0 1-2.75 4.763L842.75 328.68a5.497 5.497 0 0 1-5.5 0l-18.981-10.958a5.502 5.502 0 0 1-2.75-4.763v-21.918a5.502 5.502 0 0 1 2.75-4.763l18.981-10.958Z"/><path fill="#4200FF" d="m56.863 86.116.76.067a1.497 1.497 0 0 1 1.368 1.627c-.066.834-.787 1.458-1.612 1.382l-.77-.056c-5.427-.464-9.608-5.13-9.608-10.554 0-1.514.318-2.957.88-4.262-7.321 1.36-12.88 7.84-12.88 15.64v4.836c0 3.095-1.044 6.095-2.96 8.518l-.37.379c-.517.738-1.461.842-2.107.322-.647-.606-.752-1.477-.235-2.13l.37-.464a10.682 10.682 0 0 0 2.302-6.625v-4.837c0-10.25 8.062-18.59 18.13-18.92a10.404 10.404 0 0 1 14.691-.01H65c8.288 0 15 6.777 15 15.144v10.601c0 .833-.674 1.514-1.5 1.514-.825 0-1.5-.681-1.5-1.514v-10.6c0-5.992-4.303-10.963-9.956-11.941.478 1.071.788 2.24.89 3.469l.057.776a1.497 1.497 0 0 1-1.369 1.628c-.825.076-1.546-.55-1.612-1.382l-.066-.767c-.328-3.916-3.572-6.928-7.462-6.928-4.135 0-7.481 3.383-7.481 7.553 0 3.928 2.98 7.203 6.862 7.534Zm14.831 14.094c1.238.767 2.635 1.107 4.556 1.107 2.935 0 5.485-.833 7.182-2.574a1.487 1.487 0 0 1 2.118-.02c.591.588.6 1.544.02 2.14-2.438 2.508-5.888 3.483-9.32 3.483-.787 0-1.528-.047-2.25-.161v.076c0 3.313 2.72 6.143 6.085 6.143 2.784 0 5.222-1.922 5.897-4.648l.065-.265a1.488 1.488 0 0 1 1.82-1.098 1.505 1.505 0 0 1 1.087 1.837l-.066.255c-1.003 4.089-4.64 6.948-8.803 6.948-5.016 0-9.084-4.108-9.084-9.172v-.984c-.291-.142-.582-.303-.863-.474-.76-.463-1.463-1.041-2.138-1.713v10.828c0 2.509-2.015 4.544-4.5 4.544h-3c-2.484 0-4.5-2.035-4.5-4.544v-5.423c-1.387.568-2.99.88-4.5.88-1.593 0-3.112-.312-4.5-.88v5.423c0 2.509-2.015 4.544-4.5 4.544h-3c-2.485 0-4.5-2.035-4.5-4.544v-10.601a1.51 1.51 0 0 1 1.5-1.514c.83 0 1.5.681 1.5 1.514v10.601c0 .833.675 1.515 1.5 1.515h3c.825 0 1.5-.682 1.5-1.515v-7.572c0-.066 0-.132.01-.274-.047-.275.037-.653.262-.975a1.484 1.484 0 0 1 2.091-.379 8.905 8.905 0 0 0 5.138 1.628 8.904 8.904 0 0 0 5.137-1.628 1.485 1.485 0 0 1 2.09.379c.226.322.31.7.263.975-.075.142.01.208.01.274v7.572c0 .833.675 1.515 1.5 1.515h3c.825 0 1.5-.682 1.5-1.515V96.774c0-.833.674-1.514 1.5-1.514.524 0 .993.274 1.256.69 1.444 2.178 2.597 3.484 3.937 4.26ZM74 87.688c0 .832-.674 1.514-1.5 1.514-.825 0-1.5-.682-1.5-1.514 0-.833.675-1.515 1.5-1.515.826 0 1.5.682 1.5 1.514ZM175.863 86.116l.76.067a1.497 1.497 0 0 1 1.369 1.627c-.066.834-.788 1.458-1.613 1.382l-.769-.056c-5.428-.464-9.609-5.13-9.609-10.554 0-1.514.319-2.957.881-4.262-7.322 1.36-12.881 7.84-12.881 15.64v4.836a13.73 13.73 0 0 1-2.959 8.518l-.37.379c-.518.738-1.462.842-2.108.322-.647-.606-.752-1.477-.234-2.13l.37-.464a10.683 10.683 0 0 0 2.301-6.625v-4.837c0-10.25 8.062-18.59 18.131-18.92a10.406 10.406 0 0 1 14.691-.01h.178c8.287 0 15 6.777 15 15.144v10.601c0 .833-.675 1.514-1.5 1.514s-1.5-.681-1.5-1.514v-10.6c0-5.992-4.303-10.963-9.956-11.941.478 1.071.787 2.24.89 3.469l.057.776a1.497 1.497 0 0 1-1.369 1.628c-.825.076-1.547-.55-1.613-1.382l-.065-.767c-.328-3.916-3.572-6.928-7.463-6.928-4.134 0-7.481 3.383-7.481 7.553 0 3.928 2.981 7.203 6.862 7.534Zm14.832 14.094c1.237.767 2.634 1.107 4.556 1.107 2.934 0 5.484-.833 7.181-2.574a1.487 1.487 0 0 1 2.119-.02c.591.588.6 1.544.019 2.14-2.438 2.508-5.888 3.483-9.319 3.483a14.34 14.34 0 0 1-2.25-.161v.076c0 3.313 2.719 6.143 6.084 6.143 2.785 0 5.222-1.922 5.897-4.648l.066-.265a1.487 1.487 0 0 1 1.819-1.098 1.505 1.505 0 0 1 1.087 1.837l-.066.255c-1.003 4.089-4.64 6.948-8.803 6.948-5.015 0-9.084-4.108-9.084-9.172v-.984a10.867 10.867 0 0 1-.863-.474c-.759-.463-1.462-1.041-2.137-1.713v10.828c0 2.509-2.016 4.544-4.5 4.544h-3c-2.484 0-4.5-2.035-4.5-4.544v-5.423c-1.388.568-2.991.88-4.5.88-1.594 0-3.113-.312-4.5-.88v5.423c0 2.509-2.016 4.544-4.5 4.544h-3c-2.485 0-4.5-2.035-4.5-4.544v-10.601a1.51 1.51 0 0 1 1.5-1.514c.829 0 1.5.681 1.5 1.514v10.601c0 .833.675 1.515 1.5 1.515h3c.825 0 1.5-.682 1.5-1.515v-7.572c0-.066 0-.132.009-.274-.047-.275.038-.653.263-.975a1.484 1.484 0 0 1 2.09-.379 8.907 8.907 0 0 0 5.138 1.628 8.904 8.904 0 0 0 5.137-1.628 1.485 1.485 0 0 1 2.091.379c.225.322.309.7.263.975-.075.142.009.208.009.274v7.572c0 .833.675 1.515 1.5 1.515h3c.825 0 1.5-.682 1.5-1.515V96.774c0-.833.675-1.514 1.5-1.514.525 0 .994.274 1.256.69 1.444 2.178 2.597 3.484 3.938 4.26Zm2.306-12.522c0 .832-.675 1.514-1.5 1.514s-1.5-.682-1.5-1.514c0-.833.675-1.515 1.5-1.515s1.5.682 1.5 1.514ZM294.864 86.116l.759.067a1.497 1.497 0 0 1 1.369 1.627c-.066.834-.788 1.458-1.613 1.382l-.768-.056c-5.428-.464-9.61-5.13-9.61-10.554 0-1.514.319-2.957.882-4.262-7.322 1.36-12.882 7.84-12.882 15.64v4.836c0 3.095-1.043 6.095-2.958 8.518l-.371.379c-.517.738-1.461.842-2.108.322-.647-.606-.751-1.477-.234-2.13l.37-.464a10.683 10.683 0 0 0 2.301-6.625v-4.837c0-10.25 8.063-18.59 18.132-18.92a10.402 10.402 0 0 1 7.35-3.039c2.85 0 5.446 1.15 7.34 3.029h.178c8.288 0 15 6.777 15 15.144v10.601c0 .833-.675 1.514-1.5 1.514s-1.5-.681-1.5-1.514v-10.6c0-5.992-4.303-10.963-9.956-11.941.478 1.071.788 2.24.891 3.469l.056.776a1.497 1.497 0 0 1-1.369 1.628 1.49 1.49 0 0 1-1.612-1.382l-.066-.767c-.328-3.916-3.572-6.928-7.462-6.928-4.135 0-7.482 3.383-7.482 7.553 0 3.928 2.982 7.203 6.863 7.534Zm14.831 14.094c1.238.767 2.634 1.107 4.556 1.107 2.935 0 5.485-.833 7.182-2.574a1.486 1.486 0 0 1 2.118-.02c.591.588.6 1.544.019 2.14-2.437 2.508-5.887 3.483-9.319 3.483-.787 0-1.528-.047-2.25-.161v.076c0 3.313 2.719 6.143 6.085 6.143 2.784 0 5.222-1.922 5.897-4.648l.065-.265a1.488 1.488 0 0 1 1.819-1.098 1.504 1.504 0 0 1 1.087 1.837l-.065.255c-1.003 4.089-4.641 6.948-8.803 6.948-5.016 0-9.085-4.108-9.085-9.172v-.984c-.29-.142-.581-.303-.862-.474-.76-.463-1.463-1.041-2.138-1.713v10.828c0 2.509-2.015 4.544-4.5 4.544h-3c-2.484 0-4.5-2.035-4.5-4.544v-5.423a12.17 12.17 0 0 1-4.5.88c-1.593 0-3.112-.312-4.5-.88v5.423c0 2.509-2.015 4.544-4.5 4.544h-3c-2.485 0-4.5-2.035-4.5-4.544v-10.601a1.51 1.51 0 0 1 1.5-1.514c.829 0 1.5.681 1.5 1.514v10.601c0 .833.675 1.515 1.5 1.515h3c.825 0 1.5-.682 1.5-1.515v-7.572c0-.066 0-.132.01-.274-.047-.275.037-.653.262-.975a1.485 1.485 0 0 1 2.091-.379 8.904 8.904 0 0 0 5.137 1.628 8.904 8.904 0 0 0 5.138-1.628 1.484 1.484 0 0 1 2.09.379c.225.322.31.7.263.975-.075.142.009.208.009.274v7.572c0 .833.675 1.515 1.5 1.515h3c.825 0 1.5-.682 1.5-1.515V96.774c0-.833.675-1.514 1.5-1.514.525 0 .994.274 1.257.69 1.443 2.178 2.596 3.484 3.937 4.26Zm2.306-12.522c0 .832-.675 1.514-1.5 1.514s-1.5-.682-1.5-1.514c0-.833.675-1.515 1.5-1.515s1.5.682 1.5 1.514ZM413.864 86.116l.76.067a1.497 1.497 0 0 1 1.368 1.627 1.49 1.49 0 0 1-1.612 1.382l-.769-.056c-5.428-.464-9.609-5.13-9.609-10.554 0-1.514.319-2.957.881-4.262-7.322 1.36-12.881 7.84-12.881 15.64v4.836c0 3.095-1.044 6.095-2.959 8.518l-.37.379c-.518.738-1.462.842-2.108.322-.647-.606-.752-1.477-.234-2.13l.37-.464a10.683 10.683 0 0 0 2.301-6.625v-4.837c0-10.25 8.062-18.59 18.131-18.92a10.406 10.406 0 0 1 14.691-.01h.178c8.287 0 15 6.777 15 15.144v10.601c0 .833-.675 1.514-1.5 1.514s-1.5-.681-1.5-1.514v-10.6c0-5.992-4.303-10.963-9.956-11.941.478 1.071.787 2.24.89 3.469l.056.776a1.497 1.497 0 0 1-1.368 1.628c-.825.076-1.547-.55-1.613-1.382l-.065-.767c-.329-3.916-3.572-6.928-7.463-6.928-4.134 0-7.481 3.383-7.481 7.553 0 3.928 2.981 7.203 6.862 7.534Zm14.832 14.094c1.237.767 2.634 1.107 4.556 1.107 2.934 0 5.484-.833 7.181-2.574a1.487 1.487 0 0 1 2.119-.02c.59.588.6 1.544.019 2.14-2.438 2.508-5.888 3.483-9.319 3.483a14.34 14.34 0 0 1-2.25-.161v.076c0 3.313 2.719 6.143 6.084 6.143 2.785 0 5.222-1.922 5.897-4.648l.066-.265a1.487 1.487 0 0 1 1.818-1.098 1.504 1.504 0 0 1 1.088 1.837l-.066.255c-1.003 4.089-4.64 6.948-8.803 6.948-5.015 0-9.084-4.108-9.084-9.172v-.984a10.867 10.867 0 0 1-.863-.474c-.759-.463-1.462-1.041-2.137-1.713v10.828c0 2.509-2.016 4.544-4.5 4.544h-3c-2.485 0-4.5-2.035-4.5-4.544v-5.423c-1.388.568-2.991.88-4.5.88-1.594 0-3.113-.312-4.5-.88v5.423c0 2.509-2.016 4.544-4.5 4.544h-3c-2.486 0-4.5-2.035-4.5-4.544v-10.601a1.51 1.51 0 0 1 1.5-1.514c.829 0 1.5.681 1.5 1.514v10.601c0 .833.675 1.515 1.5 1.515h3c.825 0 1.5-.682 1.5-1.515v-7.572c0-.066 0-.132.009-.274-.047-.275.038-.653.263-.975a1.484 1.484 0 0 1 2.09-.379 8.904 8.904 0 0 0 5.138 1.628 8.904 8.904 0 0 0 5.137-1.628 1.485 1.485 0 0 1 2.091.379c.225.322.309.7.262.975-.075.142.01.208.01.274v7.572c0 .833.675 1.515 1.5 1.515h3c.825 0 1.5-.682 1.5-1.515V96.774c0-.833.675-1.514 1.5-1.514.525 0 .994.274 1.256.69 1.444 2.178 2.597 3.484 3.938 4.26Zm2.306-12.522c0 .832-.675 1.514-1.5 1.514s-1.5-.682-1.5-1.514c0-.833.675-1.515 1.5-1.515s1.5.682 1.5 1.514ZM532.865 86.116l.759.067a1.497 1.497 0 0 1 1.369 1.627c-.066.834-.788 1.458-1.613 1.382l-.768-.056c-5.429-.464-9.61-5.13-9.61-10.554 0-1.514.319-2.957.881-4.262-7.321 1.36-12.881 7.84-12.881 15.64v4.836a13.73 13.73 0 0 1-2.959 8.518l-.37.379c-.517.738-1.461.842-2.108.322-.647-.606-.752-1.477-.234-2.13l.37-.464a10.683 10.683 0 0 0 2.301-6.625v-4.837c0-10.25 8.063-18.59 18.131-18.92a10.406 10.406 0 0 1 14.691-.01h.178c8.288 0 15 6.777 15 15.144v10.601c0 .833-.675 1.514-1.5 1.514s-1.5-.681-1.5-1.514v-10.6c0-5.992-4.303-10.963-9.956-11.941.478 1.071.787 2.24.891 3.469l.056.776a1.497 1.497 0 0 1-1.369 1.628 1.49 1.49 0 0 1-1.612-1.382l-.066-.767c-.328-3.916-3.572-6.928-7.463-6.928-4.134 0-7.481 3.383-7.481 7.553 0 3.928 2.981 7.203 6.863 7.534Zm14.831 14.094c1.237.767 2.634 1.107 4.556 1.107 2.935 0 5.485-.833 7.181-2.574a1.487 1.487 0 0 1 2.119-.02c.591.588.6 1.544.019 2.14-2.438 2.508-5.888 3.483-9.319 3.483-.787 0-1.528-.047-2.25-.161v.076c0 3.313 2.719 6.143 6.085 6.143 2.784 0 5.221-1.922 5.896-4.648l.066-.265a1.488 1.488 0 0 1 1.819-1.098 1.504 1.504 0 0 1 1.087 1.837l-.065.255c-1.003 4.089-4.641 6.948-8.803 6.948-5.016 0-9.085-4.108-9.085-9.172v-.984c-.29-.142-.581-.303-.862-.474-.76-.463-1.463-1.041-2.138-1.713v10.828c0 2.509-2.015 4.544-4.5 4.544h-3c-2.484 0-4.5-2.035-4.5-4.544v-5.423a12.17 12.17 0 0 1-4.5.88c-1.594 0-3.112-.312-4.5-.88v5.423c0 2.509-2.015 4.544-4.5 4.544h-3c-2.485 0-4.5-2.035-4.5-4.544v-10.601a1.51 1.51 0 0 1 1.5-1.514c.829 0 1.5.681 1.5 1.514v10.601c0 .833.675 1.515 1.5 1.515h3c.825 0 1.5-.682 1.5-1.515v-7.572c0-.066 0-.132.01-.274-.047-.275.037-.653.262-.975a1.485 1.485 0 0 1 2.091-.379 8.904 8.904 0 0 0 5.137 1.628 8.904 8.904 0 0 0 5.138-1.628 1.484 1.484 0 0 1 2.09.379c.225.322.31.7.263.975-.075.142.009.208.009.274v7.572c0 .833.675 1.515 1.5 1.515h3c.825 0 1.5-.682 1.5-1.515V96.774c0-.833.675-1.514 1.5-1.514.525 0 .994.274 1.256.69 1.444 2.178 2.597 3.484 3.938 4.26Zm2.306-12.522c0 .832-.675 1.514-1.5 1.514s-1.5-.682-1.5-1.514c0-.833.675-1.515 1.5-1.515s1.5.682 1.5 1.514ZM651.865 86.116l.759.067a1.497 1.497 0 0 1 1.369 1.627 1.49 1.49 0 0 1-1.612 1.382l-.769-.056c-5.428-.464-9.609-5.13-9.609-10.554 0-1.514.318-2.957.881-4.262-7.322 1.36-12.881 7.84-12.881 15.64v4.836c0 3.095-1.044 6.095-2.959 8.518l-.37.379c-.518.738-1.462.842-2.108.322-.647-.606-.752-1.477-.235-2.13l.371-.464a10.683 10.683 0 0 0 2.301-6.625v-4.837c0-10.25 8.062-18.59 18.131-18.92a10.404 10.404 0 0 1 14.69-.01h.179c8.287 0 15 6.777 15 15.144v10.601c0 .833-.675 1.514-1.5 1.514s-1.5-.681-1.5-1.514v-10.6c0-5.992-4.304-10.963-9.957-11.941.478 1.071.788 2.24.891 3.469l.056.776a1.497 1.497 0 0 1-1.369 1.628c-.825.076-1.546-.55-1.612-1.382l-.066-.767c-.328-3.916-3.572-6.928-7.462-6.928-4.135 0-7.481 3.383-7.481 7.553 0 3.928 2.981 7.203 6.862 7.534Zm14.831 14.094c1.238.767 2.635 1.107 4.557 1.107 2.934 0 5.484-.833 7.181-2.574a1.487 1.487 0 0 1 2.119-.02c.59.588.6 1.544.018 2.14-2.437 2.508-5.887 3.483-9.318 3.483-.788 0-1.529-.047-2.25-.161v.076c0 3.313 2.718 6.143 6.084 6.143 2.784 0 5.222-1.922 5.897-4.648l.065-.265a1.488 1.488 0 0 1 1.819-1.098 1.505 1.505 0 0 1 1.088 1.837l-.066.255c-1.003 4.089-4.641 6.948-8.803 6.948-5.016 0-9.084-4.108-9.084-9.172v-.984a10.694 10.694 0 0 1-.863-.474c-.759-.463-1.462-1.041-2.137-1.713v10.828c0 2.509-2.016 4.544-4.5 4.544h-3c-2.485 0-4.5-2.035-4.5-4.544v-5.423c-1.388.568-2.991.88-4.5.88-1.594 0-3.113-.312-4.5-.88v5.423c0 2.509-2.016 4.544-4.5 4.544h-3c-2.486 0-4.5-2.035-4.5-4.544v-10.601a1.51 1.51 0 0 1 1.5-1.514c.828 0 1.5.681 1.5 1.514v10.601c0 .833.675 1.515 1.5 1.515h3c.825 0 1.5-.682 1.5-1.515v-7.572c0-.066 0-.132.009-.274-.047-.275.037-.653.262-.975a1.485 1.485 0 0 1 2.091-.379 8.904 8.904 0 0 0 5.138 1.628 8.904 8.904 0 0 0 5.137-1.628 1.485 1.485 0 0 1 2.091.379c.225.322.309.7.262.975-.075.142.01.208.01.274v7.572c0 .833.675 1.515 1.5 1.515h3c.825 0 1.5-.682 1.5-1.515V96.774c0-.833.675-1.514 1.5-1.514.525 0 .993.274 1.256.69 1.444 2.178 2.597 3.484 3.937 4.26Zm2.307-12.522c0 .832-.675 1.514-1.5 1.514s-1.5-.682-1.5-1.514c0-.833.675-1.515 1.5-1.515s1.5.682 1.5 1.514ZM770.866 86.116l.759.067a1.497 1.497 0 0 1 1.369 1.627c-.066.834-.788 1.458-1.613 1.382l-.769-.056c-5.428-.464-9.609-5.13-9.609-10.554 0-1.514.319-2.957.881-4.262-7.322 1.36-12.881 7.84-12.881 15.64v4.836a13.73 13.73 0 0 1-2.959 8.518l-.37.379c-.518.738-1.462.842-2.108.322-.647-.606-.752-1.477-.234-2.13l.37-.464a10.683 10.683 0 0 0 2.301-6.625v-4.837c0-10.25 8.063-18.59 18.131-18.92a10.406 10.406 0 0 1 14.691-.01h.178c8.288 0 15 6.777 15 15.144v10.601c0 .833-.675 1.514-1.5 1.514s-1.5-.681-1.5-1.514v-10.6c0-5.992-4.303-10.963-9.956-11.941.478 1.071.787 2.24.89 3.469l.057.776a1.497 1.497 0 0 1-1.369 1.628c-.825.076-1.547-.55-1.613-1.382l-.065-.767c-.328-3.916-3.572-6.928-7.463-6.928-4.134 0-7.481 3.383-7.481 7.553 0 3.928 2.981 7.203 6.863 7.534Zm14.831 14.094c1.237.767 2.634 1.107 4.556 1.107 2.934 0 5.484-.833 7.181-2.574a1.487 1.487 0 0 1 2.119-.02c.591.588.6 1.544.019 2.14-2.438 2.508-5.888 3.483-9.319 3.483-.787 0-1.528-.047-2.25-.161v.076c0 3.313 2.719 6.143 6.084 6.143 2.785 0 5.222-1.922 5.897-4.648l.066-.265a1.487 1.487 0 0 1 1.819-1.098 1.505 1.505 0 0 1 1.087 1.837l-.065.255c-1.004 4.089-4.641 6.948-8.804 6.948-5.015 0-9.084-4.108-9.084-9.172v-.984a10.676 10.676 0 0 1-.862-.474c-.76-.463-1.463-1.041-2.138-1.713v10.828c0 2.509-2.016 4.544-4.5 4.544h-3c-2.484 0-4.5-2.035-4.5-4.544v-5.423c-1.387.568-2.991.88-4.5.88-1.594 0-3.112-.312-4.5-.88v5.423c0 2.509-2.016 4.544-4.5 4.544h-3c-2.485 0-4.5-2.035-4.5-4.544v-10.601a1.51 1.51 0 0 1 1.5-1.514c.829 0 1.5.681 1.5 1.514v10.601c0 .833.675 1.515 1.5 1.515h3c.825 0 1.5-.682 1.5-1.515v-7.572c0-.066 0-.132.009-.274-.046-.275.038-.653.263-.975a1.485 1.485 0 0 1 2.091-.379 8.904 8.904 0 0 0 5.137 1.628 8.907 8.907 0 0 0 5.138-1.628 1.484 1.484 0 0 1 2.09.379c.225.322.31.7.263.975-.075.142.009.208.009.274v7.572c0 .833.675 1.515 1.5 1.515h3c.825 0 1.5-.682 1.5-1.515V96.774c0-.833.675-1.514 1.5-1.514.525 0 .994.274 1.256.69 1.444 2.178 2.597 3.484 3.938 4.26Zm2.306-12.522c0 .832-.675 1.514-1.5 1.514s-1.5-.682-1.5-1.514c0-.833.675-1.515 1.5-1.515s1.5.682 1.5 1.514ZM889.866 86.116l.759.067a1.497 1.497 0 0 1 1.369 1.627c-.066.834-.787 1.458-1.612 1.382l-.769-.056c-5.428-.464-9.61-5.13-9.61-10.554 0-1.514.319-2.957.882-4.262-7.322 1.36-12.882 7.84-12.882 15.64v4.836c0 3.095-1.043 6.095-2.958 8.518l-.371.379c-.517.738-1.461.842-2.108.322-.646-.606-.751-1.477-.234-2.13l.37-.464a10.677 10.677 0 0 0 2.301-6.625v-4.837c0-10.25 8.063-18.59 18.132-18.92a10.402 10.402 0 0 1 7.35-3.039c2.85 0 5.447 1.15 7.34 3.029h.178c8.288 0 15 6.777 15 15.144v10.601c0 .833-.675 1.514-1.5 1.514s-1.5-.681-1.5-1.514v-10.6c0-5.992-4.303-10.963-9.956-11.941.478 1.071.788 2.24.891 3.469l.056.776a1.497 1.497 0 0 1-1.369 1.628 1.49 1.49 0 0 1-1.612-1.382l-.066-.767c-.328-3.916-3.572-6.928-7.462-6.928-4.135 0-7.482 3.383-7.482 7.553 0 3.928 2.982 7.203 6.863 7.534Zm14.831 14.094c1.238.767 2.635 1.107 4.556 1.107 2.935 0 5.485-.833 7.182-2.574a1.486 1.486 0 0 1 2.118-.02c.591.588.6 1.544.019 2.14-2.437 2.508-5.887 3.483-9.319 3.483-.787 0-1.528-.047-2.25-.161v.076c0 3.313 2.719 6.143 6.085 6.143 2.784 0 5.222-1.922 5.897-4.648l.065-.265a1.488 1.488 0 0 1 1.819-1.098 1.505 1.505 0 0 1 1.088 1.837l-.066.255c-1.003 4.089-4.641 6.948-8.803 6.948-5.016 0-9.085-4.108-9.085-9.172v-.984c-.29-.142-.581-.303-.862-.474-.759-.463-1.463-1.041-2.138-1.713v10.828c0 2.509-2.015 4.544-4.5 4.544h-3c-2.484 0-4.5-2.035-4.5-4.544v-5.423a12.17 12.17 0 0 1-4.5.88c-1.593 0-3.112-.312-4.5-.88v5.423c0 2.509-2.015 4.544-4.5 4.544h-3c-2.485 0-4.5-2.035-4.5-4.544v-10.601a1.51 1.51 0 0 1 1.5-1.514c.829 0 1.5.681 1.5 1.514v10.601c0 .833.675 1.515 1.5 1.515h3c.825 0 1.5-.682 1.5-1.515v-7.572c0-.066 0-.132.01-.274-.047-.275.037-.653.262-.975a1.485 1.485 0 0 1 2.091-.379 8.904 8.904 0 0 0 5.137 1.628 8.904 8.904 0 0 0 5.138-1.628 1.485 1.485 0 0 1 2.091.379c.225.322.309.7.262.975-.075.142.009.208.009.274v7.572c0 .833.675 1.515 1.5 1.515h3c.825 0 1.5-.682 1.5-1.515V96.774c0-.833.675-1.514 1.5-1.514.525 0 .994.274 1.257.69 1.443 2.178 2.597 3.484 3.937 4.26Zm2.306-12.522c0 .832-.675 1.514-1.5 1.514s-1.5-.682-1.5-1.514c0-.833.675-1.515 1.5-1.515s1.5.682 1.5 1.514ZM56.863 226.116l.76.067a1.497 1.497 0 0 1 1.368 1.628c-.066.832-.787 1.457-1.612 1.381l-.77-.056c-5.427-.464-9.608-5.13-9.608-10.554 0-1.514.318-2.957.88-4.262-7.321 1.36-12.88 7.84-12.88 15.639v4.837c0 3.095-1.044 6.095-2.96 8.518l-.37.379c-.517.738-1.461.842-2.107.322-.647-.606-.752-1.477-.235-2.13l.37-.464a10.682 10.682 0 0 0 2.302-6.625v-4.837c0-10.251 8.062-18.59 18.13-18.92a10.403 10.403 0 0 1 7.35-3.039c2.85 0 5.448 1.15 7.341 3.029H65c8.288 0 15 6.777 15 15.144v10.601c0 .833-.674 1.514-1.5 1.514-.825 0-1.5-.681-1.5-1.514v-10.601c0-5.991-4.303-10.962-9.956-11.94.478 1.071.788 2.24.89 3.469l.057.776a1.497 1.497 0 0 1-1.369 1.628c-.825.076-1.546-.549-1.612-1.382l-.066-.767c-.328-3.916-3.572-6.928-7.462-6.928-4.135 0-7.481 3.383-7.481 7.553 0 3.928 2.98 7.203 6.862 7.534Zm14.831 14.094c1.238.767 2.635 1.107 4.556 1.107 2.935 0 5.485-.833 7.182-2.574a1.486 1.486 0 0 1 2.118-.019c.591.587.6 1.543.02 2.139-2.438 2.508-5.888 3.483-9.32 3.483-.787 0-1.528-.047-2.25-.161v.076c0 3.313 2.72 6.143 6.085 6.143 2.784 0 5.222-1.922 5.897-4.648l.065-.265a1.488 1.488 0 0 1 1.82-1.098 1.505 1.505 0 0 1 1.087 1.837l-.066.255c-1.003 4.089-4.64 6.948-8.803 6.948-5.016 0-9.084-4.108-9.084-9.172v-.984c-.291-.142-.582-.303-.863-.474-.76-.463-1.463-1.041-2.138-1.713v10.828c0 2.509-2.015 4.544-4.5 4.544h-3c-2.484 0-4.5-2.035-4.5-4.544v-5.423c-1.387.568-2.99.88-4.5.88-1.593 0-3.112-.312-4.5-.88v5.423c0 2.509-2.015 4.544-4.5 4.544h-3c-2.485 0-4.5-2.035-4.5-4.544v-10.601a1.51 1.51 0 0 1 1.5-1.514c.83 0 1.5.681 1.5 1.514v10.601c0 .833.675 1.515 1.5 1.515h3c.825 0 1.5-.682 1.5-1.515v-7.572c0-.066 0-.132.01-.274-.047-.275.037-.653.262-.975a1.484 1.484 0 0 1 2.091-.379 8.905 8.905 0 0 0 5.138 1.628 8.904 8.904 0 0 0 5.137-1.628 1.485 1.485 0 0 1 2.09.379c.226.322.31.7.263.975-.075.142.01.208.01.274v7.572c0 .833.675 1.515 1.5 1.515h3c.825 0 1.5-.682 1.5-1.515v-15.144c0-.833.674-1.514 1.5-1.514.524 0 .993.274 1.256.691 1.444 2.177 2.597 3.483 3.937 4.259ZM74 227.688c0 .832-.674 1.514-1.5 1.514-.825 0-1.5-.682-1.5-1.514 0-.833.675-1.515 1.5-1.515.826 0 1.5.682 1.5 1.515ZM175.863 226.116l.76.067a1.497 1.497 0 0 1 1.369 1.628c-.066.832-.788 1.457-1.613 1.381l-.769-.056c-5.428-.464-9.609-5.13-9.609-10.554 0-1.514.319-2.957.881-4.262-7.322 1.36-12.881 7.84-12.881 15.639v4.837a13.73 13.73 0 0 1-2.959 8.518l-.37.379c-.518.738-1.462.842-2.108.322-.647-.606-.752-1.477-.234-2.13l.37-.464a10.683 10.683 0 0 0 2.301-6.625v-4.837c0-10.251 8.062-18.59 18.131-18.92a10.404 10.404 0 0 1 7.35-3.039c2.85 0 5.447 1.15 7.341 3.029h.178c8.287 0 15 6.777 15 15.144v10.601c0 .833-.675 1.514-1.5 1.514s-1.5-.681-1.5-1.514v-10.601c0-5.991-4.303-10.962-9.956-11.94.478 1.071.787 2.24.89 3.469l.057.776a1.497 1.497 0 0 1-1.369 1.628c-.825.076-1.547-.549-1.613-1.382l-.065-.767c-.328-3.916-3.572-6.928-7.463-6.928-4.134 0-7.481 3.383-7.481 7.553 0 3.928 2.981 7.203 6.862 7.534Zm14.832 14.094c1.237.767 2.634 1.107 4.556 1.107 2.934 0 5.484-.833 7.181-2.574a1.486 1.486 0 0 1 2.119-.019c.591.587.6 1.543.019 2.139-2.438 2.508-5.888 3.483-9.319 3.483a14.34 14.34 0 0 1-2.25-.161v.076c0 3.313 2.719 6.143 6.084 6.143 2.785 0 5.222-1.922 5.897-4.648l.066-.265a1.487 1.487 0 0 1 1.819-1.098 1.505 1.505 0 0 1 1.087 1.837l-.066.255c-1.003 4.089-4.64 6.948-8.803 6.948-5.015 0-9.084-4.108-9.084-9.172v-.984a10.867 10.867 0 0 1-.863-.474c-.759-.463-1.462-1.041-2.137-1.713v10.828c0 2.509-2.016 4.544-4.5 4.544h-3c-2.484 0-4.5-2.035-4.5-4.544v-5.423c-1.388.568-2.991.88-4.5.88-1.594 0-3.113-.312-4.5-.88v5.423c0 2.509-2.016 4.544-4.5 4.544h-3c-2.485 0-4.5-2.035-4.5-4.544v-10.601a1.51 1.51 0 0 1 1.5-1.514c.829 0 1.5.681 1.5 1.514v10.601c0 .833.675 1.515 1.5 1.515h3c.825 0 1.5-.682 1.5-1.515v-7.572c0-.066 0-.132.009-.274-.047-.275.038-.653.263-.975a1.484 1.484 0 0 1 2.09-.379 8.907 8.907 0 0 0 5.138 1.628 8.904 8.904 0 0 0 5.137-1.628 1.485 1.485 0 0 1 2.091.379c.225.322.309.7.263.975-.075.142.009.208.009.274v7.572c0 .833.675 1.515 1.5 1.515h3c.825 0 1.5-.682 1.5-1.515v-15.144c0-.833.675-1.514 1.5-1.514.525 0 .994.274 1.256.691 1.444 2.177 2.597 3.483 3.938 4.259Zm2.306-12.522c0 .832-.675 1.514-1.5 1.514s-1.5-.682-1.5-1.514c0-.833.675-1.515 1.5-1.515s1.5.682 1.5 1.515ZM294.864 226.116l.759.067a1.497 1.497 0 0 1 1.369 1.628c-.066.832-.788 1.457-1.613 1.381l-.768-.056c-5.428-.464-9.61-5.13-9.61-10.554 0-1.514.319-2.957.882-4.262-7.322 1.36-12.882 7.84-12.882 15.639v4.837c0 3.095-1.043 6.095-2.958 8.518l-.371.379c-.517.738-1.461.842-2.108.322-.647-.606-.751-1.477-.234-2.13l.37-.464a10.683 10.683 0 0 0 2.301-6.625v-4.837c0-10.251 8.063-18.59 18.132-18.92a10.4 10.4 0 0 1 7.35-3.039c2.85 0 5.446 1.15 7.34 3.029h.178c8.288 0 15 6.777 15 15.144v10.601c0 .833-.675 1.514-1.5 1.514s-1.5-.681-1.5-1.514v-10.601c0-5.991-4.303-10.962-9.956-11.94.478 1.071.788 2.24.891 3.469l.056.776a1.497 1.497 0 0 1-1.369 1.628c-.825.076-1.547-.549-1.612-1.382l-.066-.767c-.328-3.916-3.572-6.928-7.462-6.928-4.135 0-7.482 3.383-7.482 7.553 0 3.928 2.982 7.203 6.863 7.534Zm14.831 14.094c1.238.767 2.634 1.107 4.556 1.107 2.935 0 5.485-.833 7.182-2.574a1.485 1.485 0 0 1 2.118-.019c.591.587.6 1.543.019 2.139-2.437 2.508-5.887 3.483-9.319 3.483-.787 0-1.528-.047-2.25-.161v.076c0 3.313 2.719 6.143 6.085 6.143 2.784 0 5.222-1.922 5.897-4.648l.065-.265a1.488 1.488 0 0 1 1.819-1.098 1.504 1.504 0 0 1 1.087 1.837l-.065.255c-1.003 4.089-4.641 6.948-8.803 6.948-5.016 0-9.085-4.108-9.085-9.172v-.984c-.29-.142-.581-.303-.862-.474-.76-.463-1.463-1.041-2.138-1.713v10.828c0 2.509-2.015 4.544-4.5 4.544h-3c-2.484 0-4.5-2.035-4.5-4.544v-5.423a12.17 12.17 0 0 1-4.5.88c-1.593 0-3.112-.312-4.5-.88v5.423c0 2.509-2.015 4.544-4.5 4.544h-3c-2.485 0-4.5-2.035-4.5-4.544v-10.601a1.51 1.51 0 0 1 1.5-1.514c.829 0 1.5.681 1.5 1.514v10.601c0 .833.675 1.515 1.5 1.515h3c.825 0 1.5-.682 1.5-1.515v-7.572c0-.066 0-.132.01-.274-.047-.275.037-.653.262-.975a1.485 1.485 0 0 1 2.091-.379 8.904 8.904 0 0 0 5.137 1.628 8.904 8.904 0 0 0 5.138-1.628 1.484 1.484 0 0 1 2.09.379c.225.322.31.7.263.975-.075.142.009.208.009.274v7.572c0 .833.675 1.515 1.5 1.515h3c.825 0 1.5-.682 1.5-1.515v-15.144c0-.833.675-1.514 1.5-1.514.525 0 .994.274 1.257.691 1.443 2.177 2.596 3.483 3.937 4.259Zm2.306-12.522c0 .832-.675 1.514-1.5 1.514s-1.5-.682-1.5-1.514c0-.833.675-1.515 1.5-1.515s1.5.682 1.5 1.515ZM413.864 226.116l.76.067a1.496 1.496 0 0 1 1.368 1.628 1.49 1.49 0 0 1-1.612 1.381l-.769-.056c-5.428-.464-9.609-5.13-9.609-10.554 0-1.514.319-2.957.881-4.262-7.322 1.36-12.881 7.84-12.881 15.639v4.837c0 3.095-1.044 6.095-2.959 8.518l-.37.379c-.518.738-1.462.842-2.108.322-.647-.606-.752-1.477-.234-2.13l.37-.464a10.683 10.683 0 0 0 2.301-6.625v-4.837c0-10.251 8.062-18.59 18.131-18.92a10.404 10.404 0 0 1 7.35-3.039c2.85 0 5.447 1.15 7.341 3.029h.178c8.287 0 15 6.777 15 15.144v10.601c0 .833-.675 1.514-1.5 1.514s-1.5-.681-1.5-1.514v-10.601c0-5.991-4.303-10.962-9.956-11.94.478 1.071.787 2.24.89 3.469l.056.776a1.496 1.496 0 0 1-1.368 1.628c-.825.076-1.547-.549-1.613-1.382l-.065-.767c-.329-3.916-3.572-6.928-7.463-6.928-4.134 0-7.481 3.383-7.481 7.553 0 3.928 2.981 7.203 6.862 7.534Zm14.832 14.094c1.237.767 2.634 1.107 4.556 1.107 2.934 0 5.484-.833 7.181-2.574a1.486 1.486 0 0 1 2.119-.019c.59.587.6 1.543.019 2.139-2.438 2.508-5.888 3.483-9.319 3.483a14.34 14.34 0 0 1-2.25-.161v.076c0 3.313 2.719 6.143 6.084 6.143 2.785 0 5.222-1.922 5.897-4.648l.066-.265a1.487 1.487 0 0 1 1.818-1.098 1.504 1.504 0 0 1 1.088 1.837l-.066.255c-1.003 4.089-4.64 6.948-8.803 6.948-5.015 0-9.084-4.108-9.084-9.172v-.984a10.867 10.867 0 0 1-.863-.474c-.759-.463-1.462-1.041-2.137-1.713v10.828c0 2.509-2.016 4.544-4.5 4.544h-3c-2.485 0-4.5-2.035-4.5-4.544v-5.423c-1.388.568-2.991.88-4.5.88-1.594 0-3.113-.312-4.5-.88v5.423c0 2.509-2.016 4.544-4.5 4.544h-3c-2.486 0-4.5-2.035-4.5-4.544v-10.601a1.51 1.51 0 0 1 1.5-1.514c.829 0 1.5.681 1.5 1.514v10.601c0 .833.675 1.515 1.5 1.515h3c.825 0 1.5-.682 1.5-1.515v-7.572c0-.066 0-.132.009-.274-.047-.275.038-.653.263-.975a1.484 1.484 0 0 1 2.09-.379 8.904 8.904 0 0 0 5.138 1.628 8.904 8.904 0 0 0 5.137-1.628 1.485 1.485 0 0 1 2.091.379c.225.322.309.7.262.975-.075.142.01.208.01.274v7.572c0 .833.675 1.515 1.5 1.515h3c.825 0 1.5-.682 1.5-1.515v-15.144c0-.833.675-1.514 1.5-1.514.525 0 .994.274 1.256.691 1.444 2.177 2.597 3.483 3.938 4.259Zm2.306-12.522c0 .832-.675 1.514-1.5 1.514s-1.5-.682-1.5-1.514c0-.833.675-1.515 1.5-1.515s1.5.682 1.5 1.515ZM532.865 226.116l.759.067a1.497 1.497 0 0 1 1.369 1.628c-.066.832-.788 1.457-1.613 1.381l-.768-.056c-5.429-.464-9.61-5.13-9.61-10.554 0-1.514.319-2.957.881-4.262-7.321 1.36-12.881 7.84-12.881 15.639v4.837a13.73 13.73 0 0 1-2.959 8.518l-.37.379c-.517.738-1.461.842-2.108.322-.647-.606-.752-1.477-.234-2.13l.37-.464a10.683 10.683 0 0 0 2.301-6.625v-4.837c0-10.251 8.063-18.59 18.131-18.92a10.404 10.404 0 0 1 7.35-3.039c2.85 0 5.447 1.15 7.341 3.029h.178c8.288 0 15 6.777 15 15.144v10.601c0 .833-.675 1.514-1.5 1.514s-1.5-.681-1.5-1.514v-10.601c0-5.991-4.303-10.962-9.956-11.94.478 1.071.787 2.24.891 3.469l.056.776a1.497 1.497 0 0 1-1.369 1.628c-.825.076-1.547-.549-1.612-1.382l-.066-.767c-.328-3.916-3.572-6.928-7.463-6.928-4.134 0-7.481 3.383-7.481 7.553 0 3.928 2.981 7.203 6.863 7.534Zm14.831 14.094c1.237.767 2.634 1.107 4.556 1.107 2.935 0 5.485-.833 7.181-2.574a1.486 1.486 0 0 1 2.119-.019c.591.587.6 1.543.019 2.139-2.438 2.508-5.888 3.483-9.319 3.483-.787 0-1.528-.047-2.25-.161v.076c0 3.313 2.719 6.143 6.085 6.143 2.784 0 5.221-1.922 5.896-4.648l.066-.265a1.488 1.488 0 0 1 1.819-1.098 1.504 1.504 0 0 1 1.087 1.837l-.065.255c-1.003 4.089-4.641 6.948-8.803 6.948-5.016 0-9.085-4.108-9.085-9.172v-.984c-.29-.142-.581-.303-.862-.474-.76-.463-1.463-1.041-2.138-1.713v10.828c0 2.509-2.015 4.544-4.5 4.544h-3c-2.484 0-4.5-2.035-4.5-4.544v-5.423a12.17 12.17 0 0 1-4.5.88c-1.594 0-3.112-.312-4.5-.88v5.423c0 2.509-2.015 4.544-4.5 4.544h-3c-2.485 0-4.5-2.035-4.5-4.544v-10.601a1.51 1.51 0 0 1 1.5-1.514c.829 0 1.5.681 1.5 1.514v10.601c0 .833.675 1.515 1.5 1.515h3c.825 0 1.5-.682 1.5-1.515v-7.572c0-.066 0-.132.01-.274-.047-.275.037-.653.262-.975a1.485 1.485 0 0 1 2.091-.379 8.904 8.904 0 0 0 5.137 1.628 8.904 8.904 0 0 0 5.138-1.628 1.484 1.484 0 0 1 2.09.379c.225.322.31.7.263.975-.075.142.009.208.009.274v7.572c0 .833.675 1.515 1.5 1.515h3c.825 0 1.5-.682 1.5-1.515v-15.144c0-.833.675-1.514 1.5-1.514.525 0 .994.274 1.256.691 1.444 2.177 2.597 3.483 3.938 4.259Zm2.306-12.522c0 .832-.675 1.514-1.5 1.514s-1.5-.682-1.5-1.514c0-.833.675-1.515 1.5-1.515s1.5.682 1.5 1.515ZM651.865 226.116l.759.067a1.497 1.497 0 0 1 1.369 1.628 1.49 1.49 0 0 1-1.612 1.381l-.769-.056c-5.428-.464-9.609-5.13-9.609-10.554 0-1.514.318-2.957.881-4.262-7.322 1.36-12.881 7.84-12.881 15.639v4.837c0 3.095-1.044 6.095-2.959 8.518l-.37.379c-.518.738-1.462.842-2.108.322-.647-.606-.752-1.477-.235-2.13l.371-.464a10.683 10.683 0 0 0 2.301-6.625v-4.837c0-10.251 8.062-18.59 18.131-18.92a10.403 10.403 0 0 1 7.35-3.039c2.85 0 5.447 1.15 7.34 3.029h.179c8.287 0 15 6.777 15 15.144v10.601c0 .833-.675 1.514-1.5 1.514s-1.5-.681-1.5-1.514v-10.601c0-5.991-4.304-10.962-9.957-11.94.478 1.071.788 2.24.891 3.469l.056.776a1.497 1.497 0 0 1-1.369 1.628c-.825.076-1.546-.549-1.612-1.382l-.066-.767c-.328-3.916-3.572-6.928-7.462-6.928-4.135 0-7.481 3.383-7.481 7.553 0 3.928 2.981 7.203 6.862 7.534Zm14.831 14.094c1.238.767 2.635 1.107 4.557 1.107 2.934 0 5.484-.833 7.181-2.574a1.486 1.486 0 0 1 2.119-.019c.59.587.6 1.543.018 2.139-2.437 2.508-5.887 3.483-9.318 3.483-.788 0-1.529-.047-2.25-.161v.076c0 3.313 2.718 6.143 6.084 6.143 2.784 0 5.222-1.922 5.897-4.648l.065-.265a1.488 1.488 0 0 1 1.819-1.098 1.505 1.505 0 0 1 1.088 1.837l-.066.255c-1.003 4.089-4.641 6.948-8.803 6.948-5.016 0-9.084-4.108-9.084-9.172v-.984a10.694 10.694 0 0 1-.863-.474c-.759-.463-1.462-1.041-2.137-1.713v10.828c0 2.509-2.016 4.544-4.5 4.544h-3c-2.485 0-4.5-2.035-4.5-4.544v-5.423c-1.388.568-2.991.88-4.5.88-1.594 0-3.113-.312-4.5-.88v5.423c0 2.509-2.016 4.544-4.5 4.544h-3c-2.486 0-4.5-2.035-4.5-4.544v-10.601a1.51 1.51 0 0 1 1.5-1.514c.828 0 1.5.681 1.5 1.514v10.601c0 .833.675 1.515 1.5 1.515h3c.825 0 1.5-.682 1.5-1.515v-7.572c0-.066 0-.132.009-.274-.047-.275.037-.653.262-.975a1.485 1.485 0 0 1 2.091-.379 8.904 8.904 0 0 0 5.138 1.628 8.904 8.904 0 0 0 5.137-1.628 1.485 1.485 0 0 1 2.091.379c.225.322.309.7.262.975-.075.142.01.208.01.274v7.572c0 .833.675 1.515 1.5 1.515h3c.825 0 1.5-.682 1.5-1.515v-15.144c0-.833.675-1.514 1.5-1.514.525 0 .993.274 1.256.691 1.444 2.177 2.597 3.483 3.937 4.259Zm2.307-12.522c0 .832-.675 1.514-1.5 1.514s-1.5-.682-1.5-1.514c0-.833.675-1.515 1.5-1.515s1.5.682 1.5 1.515ZM770.866 226.116l.759.067a1.497 1.497 0 0 1 1.369 1.628c-.066.832-.788 1.457-1.613 1.381l-.769-.056c-5.428-.464-9.609-5.13-9.609-10.554 0-1.514.319-2.957.881-4.262-7.322 1.36-12.881 7.84-12.881 15.639v4.837a13.73 13.73 0 0 1-2.959 8.518l-.37.379c-.518.738-1.462.842-2.108.322-.647-.606-.752-1.477-.234-2.13l.37-.464a10.683 10.683 0 0 0 2.301-6.625v-4.837c0-10.251 8.063-18.59 18.131-18.92a10.404 10.404 0 0 1 7.35-3.039c2.85 0 5.447 1.15 7.341 3.029h.178c8.288 0 15 6.777 15 15.144v10.601c0 .833-.675 1.514-1.5 1.514s-1.5-.681-1.5-1.514v-10.601c0-5.991-4.303-10.962-9.956-11.94.478 1.071.787 2.24.89 3.469l.057.776a1.497 1.497 0 0 1-1.369 1.628c-.825.076-1.547-.549-1.613-1.382l-.065-.767c-.328-3.916-3.572-6.928-7.463-6.928-4.134 0-7.481 3.383-7.481 7.553 0 3.928 2.981 7.203 6.863 7.534Zm14.831 14.094c1.237.767 2.634 1.107 4.556 1.107 2.934 0 5.484-.833 7.181-2.574a1.486 1.486 0 0 1 2.119-.019c.591.587.6 1.543.019 2.139-2.438 2.508-5.888 3.483-9.319 3.483-.787 0-1.528-.047-2.25-.161v.076c0 3.313 2.719 6.143 6.084 6.143 2.785 0 5.222-1.922 5.897-4.648l.066-.265a1.487 1.487 0 0 1 1.819-1.098 1.505 1.505 0 0 1 1.087 1.837l-.065.255c-1.004 4.089-4.641 6.948-8.804 6.948-5.015 0-9.084-4.108-9.084-9.172v-.984a10.676 10.676 0 0 1-.862-.474c-.76-.463-1.463-1.041-2.138-1.713v10.828c0 2.509-2.016 4.544-4.5 4.544h-3c-2.484 0-4.5-2.035-4.5-4.544v-5.423c-1.387.568-2.991.88-4.5.88-1.594 0-3.112-.312-4.5-.88v5.423c0 2.509-2.016 4.544-4.5 4.544h-3c-2.485 0-4.5-2.035-4.5-4.544v-10.601a1.51 1.51 0 0 1 1.5-1.514c.829 0 1.5.681 1.5 1.514v10.601c0 .833.675 1.515 1.5 1.515h3c.825 0 1.5-.682 1.5-1.515v-7.572c0-.066 0-.132.009-.274-.046-.275.038-.653.263-.975a1.485 1.485 0 0 1 2.091-.379 8.904 8.904 0 0 0 5.137 1.628 8.907 8.907 0 0 0 5.138-1.628 1.484 1.484 0 0 1 2.09.379c.225.322.31.7.263.975-.075.142.009.208.009.274v7.572c0 .833.675 1.515 1.5 1.515h3c.825 0 1.5-.682 1.5-1.515v-15.144c0-.833.675-1.514 1.5-1.514.525 0 .994.274 1.256.691 1.444 2.177 2.597 3.483 3.938 4.259Zm2.306-12.522c0 .832-.675 1.514-1.5 1.514s-1.5-.682-1.5-1.514c0-.833.675-1.515 1.5-1.515s1.5.682 1.5 1.515ZM889.866 226.116l.759.067a1.497 1.497 0 0 1 1.369 1.628c-.066.832-.787 1.457-1.612 1.381l-.769-.056c-5.428-.464-9.61-5.13-9.61-10.554 0-1.514.319-2.957.882-4.262-7.322 1.36-12.882 7.84-12.882 15.639v4.837c0 3.095-1.043 6.095-2.958 8.518l-.371.379c-.517.738-1.461.842-2.108.322-.646-.606-.751-1.477-.234-2.13l.37-.464a10.677 10.677 0 0 0 2.301-6.625v-4.837c0-10.251 8.063-18.59 18.132-18.92a10.4 10.4 0 0 1 7.35-3.039c2.85 0 5.447 1.15 7.34 3.029h.178c8.288 0 15 6.777 15 15.144v10.601c0 .833-.675 1.514-1.5 1.514s-1.5-.681-1.5-1.514v-10.601c0-5.991-4.303-10.962-9.956-11.94.478 1.071.788 2.24.891 3.469l.056.776a1.497 1.497 0 0 1-1.369 1.628c-.825.076-1.547-.549-1.612-1.382l-.066-.767c-.328-3.916-3.572-6.928-7.462-6.928-4.135 0-7.482 3.383-7.482 7.553 0 3.928 2.982 7.203 6.863 7.534Zm14.831 14.094c1.238.767 2.635 1.107 4.556 1.107 2.935 0 5.485-.833 7.182-2.574a1.485 1.485 0 0 1 2.118-.019c.591.587.6 1.543.019 2.139-2.437 2.508-5.887 3.483-9.319 3.483-.787 0-1.528-.047-2.25-.161v.076c0 3.313 2.719 6.143 6.085 6.143 2.784 0 5.222-1.922 5.897-4.648l.065-.265a1.488 1.488 0 0 1 1.819-1.098 1.505 1.505 0 0 1 1.088 1.837l-.066.255c-1.003 4.089-4.641 6.948-8.803 6.948-5.016 0-9.085-4.108-9.085-9.172v-.984c-.29-.142-.581-.303-.862-.474-.759-.463-1.463-1.041-2.138-1.713v10.828c0 2.509-2.015 4.544-4.5 4.544h-3c-2.484 0-4.5-2.035-4.5-4.544v-5.423a12.17 12.17 0 0 1-4.5.88c-1.593 0-3.112-.312-4.5-.88v5.423c0 2.509-2.015 4.544-4.5 4.544h-3c-2.485 0-4.5-2.035-4.5-4.544v-10.601a1.51 1.51 0 0 1 1.5-1.514c.829 0 1.5.681 1.5 1.514v10.601c0 .833.675 1.515 1.5 1.515h3c.825 0 1.5-.682 1.5-1.515v-7.572c0-.066 0-.132.01-.274-.047-.275.037-.653.262-.975a1.485 1.485 0 0 1 2.091-.379 8.904 8.904 0 0 0 5.137 1.628 8.904 8.904 0 0 0 5.138-1.628 1.485 1.485 0 0 1 2.091.379c.225.322.309.7.262.975-.075.142.009.208.009.274v7.572c0 .833.675 1.515 1.5 1.515h3c.825 0 1.5-.682 1.5-1.515v-15.144c0-.833.675-1.514 1.5-1.514.525 0 .994.274 1.257.691 1.443 2.177 2.597 3.483 3.937 4.259Zm2.306-12.522c0 .832-.675 1.514-1.5 1.514s-1.5-.682-1.5-1.514c0-.833.675-1.515 1.5-1.515s1.5.682 1.5 1.515ZM56.863 366.116l.76.067a1.497 1.497 0 0 1 1.368 1.628c-.066.832-.787 1.457-1.612 1.381l-.77-.056c-5.427-.464-9.608-5.13-9.608-10.554 0-1.514.318-2.957.88-4.262-7.321 1.36-12.88 7.84-12.88 15.639v4.837c0 3.095-1.044 6.095-2.96 8.518l-.37.379c-.517.738-1.461.842-2.107.322-.647-.606-.752-1.477-.235-2.13l.37-.464a10.682 10.682 0 0 0 2.302-6.625v-4.837c0-10.251 8.062-18.59 18.13-18.92a10.403 10.403 0 0 1 7.35-3.039c2.85 0 5.448 1.15 7.341 3.029H65c8.288 0 15 6.777 15 15.144v10.601c0 .833-.674 1.514-1.5 1.514-.825 0-1.5-.681-1.5-1.514v-10.601c0-5.991-4.303-10.962-9.956-11.94.478 1.071.788 2.24.89 3.469l.057.776a1.497 1.497 0 0 1-1.369 1.628c-.825.076-1.546-.549-1.612-1.382l-.066-.767c-.328-3.916-3.572-6.928-7.462-6.928-4.135 0-7.481 3.383-7.481 7.553 0 3.928 2.98 7.203 6.862 7.534Zm14.831 14.094c1.238.767 2.635 1.107 4.556 1.107 2.935 0 5.485-.833 7.182-2.574a1.486 1.486 0 0 1 2.118-.019c.591.587.6 1.543.02 2.139-2.438 2.508-5.888 3.483-9.32 3.483-.787 0-1.528-.047-2.25-.161v.076c0 3.313 2.72 6.143 6.085 6.143 2.784 0 5.222-1.922 5.897-4.648l.065-.265a1.488 1.488 0 0 1 1.82-1.098 1.505 1.505 0 0 1 1.087 1.837l-.066.255c-1.003 4.089-4.64 6.948-8.803 6.948-5.016 0-9.084-4.108-9.084-9.172v-.984c-.291-.142-.582-.303-.863-.474-.76-.463-1.463-1.041-2.138-1.713v10.828c0 2.509-2.015 4.544-4.5 4.544h-3c-2.484 0-4.5-2.035-4.5-4.544v-5.423c-1.387.568-2.99.88-4.5.88-1.593 0-3.112-.312-4.5-.88v5.423c0 2.509-2.015 4.544-4.5 4.544h-3c-2.485 0-4.5-2.035-4.5-4.544v-10.601a1.51 1.51 0 0 1 1.5-1.514c.83 0 1.5.681 1.5 1.514v10.601c0 .833.675 1.515 1.5 1.515h3c.825 0 1.5-.682 1.5-1.515v-7.572c0-.066 0-.132.01-.274-.047-.275.037-.653.262-.975a1.484 1.484 0 0 1 2.091-.379 8.905 8.905 0 0 0 5.138 1.628 8.904 8.904 0 0 0 5.137-1.628 1.485 1.485 0 0 1 2.09.379c.226.322.31.7.263.975-.075.142.01.208.01.274v7.572c0 .833.675 1.515 1.5 1.515h3c.825 0 1.5-.682 1.5-1.515v-15.144c0-.833.674-1.514 1.5-1.514.524 0 .993.274 1.256.691 1.444 2.177 2.597 3.483 3.937 4.259ZM74 367.688c0 .832-.674 1.514-1.5 1.514-.825 0-1.5-.682-1.5-1.514 0-.833.675-1.515 1.5-1.515.826 0 1.5.682 1.5 1.515ZM175.863 366.116l.76.067a1.497 1.497 0 0 1 1.369 1.628c-.066.832-.788 1.457-1.613 1.381l-.769-.056c-5.428-.464-9.609-5.13-9.609-10.554 0-1.514.319-2.957.881-4.262-7.322 1.36-12.881 7.84-12.881 15.639v4.837a13.73 13.73 0 0 1-2.959 8.518l-.37.379c-.518.738-1.462.842-2.108.322-.647-.606-.752-1.477-.234-2.13l.37-.464a10.683 10.683 0 0 0 2.301-6.625v-4.837c0-10.251 8.062-18.59 18.131-18.92a10.404 10.404 0 0 1 7.35-3.039c2.85 0 5.447 1.15 7.341 3.029h.178c8.287 0 15 6.777 15 15.144v10.601c0 .833-.675 1.514-1.5 1.514s-1.5-.681-1.5-1.514v-10.601c0-5.991-4.303-10.962-9.956-11.94.478 1.071.787 2.24.89 3.469l.057.776a1.497 1.497 0 0 1-1.369 1.628c-.825.076-1.547-.549-1.613-1.382l-.065-.767c-.328-3.916-3.572-6.928-7.463-6.928-4.134 0-7.481 3.383-7.481 7.553 0 3.928 2.981 7.203 6.862 7.534Zm14.832 14.094c1.237.767 2.634 1.107 4.556 1.107 2.934 0 5.484-.833 7.181-2.574a1.486 1.486 0 0 1 2.119-.019c.591.587.6 1.543.019 2.139-2.438 2.508-5.888 3.483-9.319 3.483a14.34 14.34 0 0 1-2.25-.161v.076c0 3.313 2.719 6.143 6.084 6.143 2.785 0 5.222-1.922 5.897-4.648l.066-.265a1.487 1.487 0 0 1 1.819-1.098 1.505 1.505 0 0 1 1.087 1.837l-.066.255c-1.003 4.089-4.64 6.948-8.803 6.948-5.015 0-9.084-4.108-9.084-9.172v-.984a10.867 10.867 0 0 1-.863-.474c-.759-.463-1.462-1.041-2.137-1.713v10.828c0 2.509-2.016 4.544-4.5 4.544h-3c-2.484 0-4.5-2.035-4.5-4.544v-5.423c-1.388.568-2.991.88-4.5.88-1.594 0-3.113-.312-4.5-.88v5.423c0 2.509-2.016 4.544-4.5 4.544h-3c-2.485 0-4.5-2.035-4.5-4.544v-10.601a1.51 1.51 0 0 1 1.5-1.514c.829 0 1.5.681 1.5 1.514v10.601c0 .833.675 1.515 1.5 1.515h3c.825 0 1.5-.682 1.5-1.515v-7.572c0-.066 0-.132.009-.274-.047-.275.038-.653.263-.975a1.484 1.484 0 0 1 2.09-.379 8.907 8.907 0 0 0 5.138 1.628 8.904 8.904 0 0 0 5.137-1.628 1.485 1.485 0 0 1 2.091.379c.225.322.309.7.263.975-.075.142.009.208.009.274v7.572c0 .833.675 1.515 1.5 1.515h3c.825 0 1.5-.682 1.5-1.515v-15.144c0-.833.675-1.514 1.5-1.514.525 0 .994.274 1.256.691 1.444 2.177 2.597 3.483 3.938 4.259Zm2.306-12.522c0 .832-.675 1.514-1.5 1.514s-1.5-.682-1.5-1.514c0-.833.675-1.515 1.5-1.515s1.5.682 1.5 1.515ZM294.864 366.116l.759.067a1.497 1.497 0 0 1 1.369 1.628c-.066.832-.788 1.457-1.613 1.381l-.768-.056c-5.428-.464-9.61-5.13-9.61-10.554 0-1.514.319-2.957.882-4.262-7.322 1.36-12.882 7.84-12.882 15.639v4.837c0 3.095-1.043 6.095-2.958 8.518l-.371.379c-.517.738-1.461.842-2.108.322-.647-.606-.751-1.477-.234-2.13l.37-.464a10.683 10.683 0 0 0 2.301-6.625v-4.837c0-10.251 8.063-18.59 18.132-18.92a10.4 10.4 0 0 1 7.35-3.039c2.85 0 5.446 1.15 7.34 3.029h.178c8.288 0 15 6.777 15 15.144v10.601c0 .833-.675 1.514-1.5 1.514s-1.5-.681-1.5-1.514v-10.601c0-5.991-4.303-10.962-9.956-11.94.478 1.071.788 2.24.891 3.469l.056.776a1.497 1.497 0 0 1-1.369 1.628c-.825.076-1.547-.549-1.612-1.382l-.066-.767c-.328-3.916-3.572-6.928-7.462-6.928-4.135 0-7.482 3.383-7.482 7.553 0 3.928 2.982 7.203 6.863 7.534Zm14.831 14.094c1.238.767 2.634 1.107 4.556 1.107 2.935 0 5.485-.833 7.182-2.574a1.485 1.485 0 0 1 2.118-.019c.591.587.6 1.543.019 2.139-2.437 2.508-5.887 3.483-9.319 3.483-.787 0-1.528-.047-2.25-.161v.076c0 3.313 2.719 6.143 6.085 6.143 2.784 0 5.222-1.922 5.897-4.648l.065-.265a1.488 1.488 0 0 1 1.819-1.098 1.504 1.504 0 0 1 1.087 1.837l-.065.255c-1.003 4.089-4.641 6.948-8.803 6.948-5.016 0-9.085-4.108-9.085-9.172v-.984c-.29-.142-.581-.303-.862-.474-.76-.463-1.463-1.041-2.138-1.713v10.828c0 2.509-2.015 4.544-4.5 4.544h-3c-2.484 0-4.5-2.035-4.5-4.544v-5.423a12.17 12.17 0 0 1-4.5.88c-1.593 0-3.112-.312-4.5-.88v5.423c0 2.509-2.015 4.544-4.5 4.544h-3c-2.485 0-4.5-2.035-4.5-4.544v-10.601a1.51 1.51 0 0 1 1.5-1.514c.829 0 1.5.681 1.5 1.514v10.601c0 .833.675 1.515 1.5 1.515h3c.825 0 1.5-.682 1.5-1.515v-7.572c0-.066 0-.132.01-.274-.047-.275.037-.653.262-.975a1.485 1.485 0 0 1 2.091-.379 8.904 8.904 0 0 0 5.137 1.628 8.904 8.904 0 0 0 5.138-1.628 1.484 1.484 0 0 1 2.09.379c.225.322.31.7.263.975-.075.142.009.208.009.274v7.572c0 .833.675 1.515 1.5 1.515h3c.825 0 1.5-.682 1.5-1.515v-15.144c0-.833.675-1.514 1.5-1.514.525 0 .994.274 1.257.691 1.443 2.177 2.596 3.483 3.937 4.259Zm2.306-12.522c0 .832-.675 1.514-1.5 1.514s-1.5-.682-1.5-1.514c0-.833.675-1.515 1.5-1.515s1.5.682 1.5 1.515ZM413.864 366.116l.76.067a1.496 1.496 0 0 1 1.368 1.628 1.49 1.49 0 0 1-1.612 1.381l-.769-.056c-5.428-.464-9.609-5.13-9.609-10.554 0-1.514.319-2.957.881-4.262-7.322 1.36-12.881 7.84-12.881 15.639v4.837c0 3.095-1.044 6.095-2.959 8.518l-.37.379c-.518.738-1.462.842-2.108.322-.647-.606-.752-1.477-.234-2.13l.37-.464a10.683 10.683 0 0 0 2.301-6.625v-4.837c0-10.251 8.062-18.59 18.131-18.92a10.404 10.404 0 0 1 7.35-3.039c2.85 0 5.447 1.15 7.341 3.029h.178c8.287 0 15 6.777 15 15.144v10.601c0 .833-.675 1.514-1.5 1.514s-1.5-.681-1.5-1.514v-10.601c0-5.991-4.303-10.962-9.956-11.94.478 1.071.787 2.24.89 3.469l.056.776a1.496 1.496 0 0 1-1.368 1.628c-.825.076-1.547-.549-1.613-1.382l-.065-.767c-.329-3.916-3.572-6.928-7.463-6.928-4.134 0-7.481 3.383-7.481 7.553 0 3.928 2.981 7.203 6.862 7.534Zm14.832 14.094c1.237.767 2.634 1.107 4.556 1.107 2.934 0 5.484-.833 7.181-2.574a1.486 1.486 0 0 1 2.119-.019c.59.587.6 1.543.019 2.139-2.438 2.508-5.888 3.483-9.319 3.483a14.34 14.34 0 0 1-2.25-.161v.076c0 3.313 2.719 6.143 6.084 6.143 2.785 0 5.222-1.922 5.897-4.648l.066-.265a1.487 1.487 0 0 1 1.818-1.098 1.504 1.504 0 0 1 1.088 1.837l-.066.255c-1.003 4.089-4.64 6.948-8.803 6.948-5.015 0-9.084-4.108-9.084-9.172v-.984a10.867 10.867 0 0 1-.863-.474c-.759-.463-1.462-1.041-2.137-1.713v10.828c0 2.509-2.016 4.544-4.5 4.544h-3c-2.485 0-4.5-2.035-4.5-4.544v-5.423c-1.388.568-2.991.88-4.5.88-1.594 0-3.113-.312-4.5-.88v5.423c0 2.509-2.016 4.544-4.5 4.544h-3c-2.486 0-4.5-2.035-4.5-4.544v-10.601a1.51 1.51 0 0 1 1.5-1.514c.829 0 1.5.681 1.5 1.514v10.601c0 .833.675 1.515 1.5 1.515h3c.825 0 1.5-.682 1.5-1.515v-7.572c0-.066 0-.132.009-.274-.047-.275.038-.653.263-.975a1.484 1.484 0 0 1 2.09-.379 8.904 8.904 0 0 0 5.138 1.628 8.904 8.904 0 0 0 5.137-1.628 1.485 1.485 0 0 1 2.091.379c.225.322.309.7.262.975-.075.142.01.208.01.274v7.572c0 .833.675 1.515 1.5 1.515h3c.825 0 1.5-.682 1.5-1.515v-15.144c0-.833.675-1.514 1.5-1.514.525 0 .994.274 1.256.691 1.444 2.177 2.597 3.483 3.938 4.259Zm2.306-12.522c0 .832-.675 1.514-1.5 1.514s-1.5-.682-1.5-1.514c0-.833.675-1.515 1.5-1.515s1.5.682 1.5 1.515ZM532.865 366.116l.759.067a1.497 1.497 0 0 1 1.369 1.628c-.066.832-.788 1.457-1.613 1.381l-.768-.056c-5.429-.464-9.61-5.13-9.61-10.554 0-1.514.319-2.957.881-4.262-7.321 1.36-12.881 7.84-12.881 15.639v4.837a13.73 13.73 0 0 1-2.959 8.518l-.37.379c-.517.738-1.461.842-2.108.322-.647-.606-.752-1.477-.234-2.13l.37-.464a10.683 10.683 0 0 0 2.301-6.625v-4.837c0-10.251 8.063-18.59 18.131-18.92a10.404 10.404 0 0 1 7.35-3.039c2.85 0 5.447 1.15 7.341 3.029h.178c8.288 0 15 6.777 15 15.144v10.601c0 .833-.675 1.514-1.5 1.514s-1.5-.681-1.5-1.514v-10.601c0-5.991-4.303-10.962-9.956-11.94.478 1.071.787 2.24.891 3.469l.056.776a1.497 1.497 0 0 1-1.369 1.628c-.825.076-1.547-.549-1.612-1.382l-.066-.767c-.328-3.916-3.572-6.928-7.463-6.928-4.134 0-7.481 3.383-7.481 7.553 0 3.928 2.981 7.203 6.863 7.534Zm14.831 14.094c1.237.767 2.634 1.107 4.556 1.107 2.935 0 5.485-.833 7.181-2.574a1.486 1.486 0 0 1 2.119-.019c.591.587.6 1.543.019 2.139-2.438 2.508-5.888 3.483-9.319 3.483-.787 0-1.528-.047-2.25-.161v.076c0 3.313 2.719 6.143 6.085 6.143 2.784 0 5.221-1.922 5.896-4.648l.066-.265a1.488 1.488 0 0 1 1.819-1.098 1.504 1.504 0 0 1 1.087 1.837l-.065.255c-1.003 4.089-4.641 6.948-8.803 6.948-5.016 0-9.085-4.108-9.085-9.172v-.984c-.29-.142-.581-.303-.862-.474-.76-.463-1.463-1.041-2.138-1.713v10.828c0 2.509-2.015 4.544-4.5 4.544h-3c-2.484 0-4.5-2.035-4.5-4.544v-5.423a12.17 12.17 0 0 1-4.5.88c-1.594 0-3.112-.312-4.5-.88v5.423c0 2.509-2.015 4.544-4.5 4.544h-3c-2.485 0-4.5-2.035-4.5-4.544v-10.601a1.51 1.51 0 0 1 1.5-1.514c.829 0 1.5.681 1.5 1.514v10.601c0 .833.675 1.515 1.5 1.515h3c.825 0 1.5-.682 1.5-1.515v-7.572c0-.066 0-.132.01-.274-.047-.275.037-.653.262-.975a1.485 1.485 0 0 1 2.091-.379 8.904 8.904 0 0 0 5.137 1.628 8.904 8.904 0 0 0 5.138-1.628 1.484 1.484 0 0 1 2.09.379c.225.322.31.7.263.975-.075.142.009.208.009.274v7.572c0 .833.675 1.515 1.5 1.515h3c.825 0 1.5-.682 1.5-1.515v-15.144c0-.833.675-1.514 1.5-1.514.525 0 .994.274 1.256.691 1.444 2.177 2.597 3.483 3.938 4.259Zm2.306-12.522c0 .832-.675 1.514-1.5 1.514s-1.5-.682-1.5-1.514c0-.833.675-1.515 1.5-1.515s1.5.682 1.5 1.515ZM651.865 366.116l.759.067a1.497 1.497 0 0 1 1.369 1.628 1.49 1.49 0 0 1-1.612 1.381l-.769-.056c-5.428-.464-9.609-5.13-9.609-10.554 0-1.514.318-2.957.881-4.262-7.322 1.36-12.881 7.84-12.881 15.639v4.837c0 3.095-1.044 6.095-2.959 8.518l-.37.379c-.518.738-1.462.842-2.108.322-.647-.606-.752-1.477-.235-2.13l.371-.464a10.683 10.683 0 0 0 2.301-6.625v-4.837c0-10.251 8.062-18.59 18.131-18.92a10.403 10.403 0 0 1 7.35-3.039c2.85 0 5.447 1.15 7.34 3.029h.179c8.287 0 15 6.777 15 15.144v10.601c0 .833-.675 1.514-1.5 1.514s-1.5-.681-1.5-1.514v-10.601c0-5.991-4.304-10.962-9.957-11.94.478 1.071.788 2.24.891 3.469l.056.776a1.497 1.497 0 0 1-1.369 1.628c-.825.076-1.546-.549-1.612-1.382l-.066-.767c-.328-3.916-3.572-6.928-7.462-6.928-4.135 0-7.481 3.383-7.481 7.553 0 3.928 2.981 7.203 6.862 7.534Zm14.831 14.094c1.238.767 2.635 1.107 4.557 1.107 2.934 0 5.484-.833 7.181-2.574a1.486 1.486 0 0 1 2.119-.019c.59.587.6 1.543.018 2.139-2.437 2.508-5.887 3.483-9.318 3.483-.788 0-1.529-.047-2.25-.161v.076c0 3.313 2.718 6.143 6.084 6.143 2.784 0 5.222-1.922 5.897-4.648l.065-.265a1.488 1.488 0 0 1 1.819-1.098 1.505 1.505 0 0 1 1.088 1.837l-.066.255c-1.003 4.089-4.641 6.948-8.803 6.948-5.016 0-9.084-4.108-9.084-9.172v-.984a10.694 10.694 0 0 1-.863-.474c-.759-.463-1.462-1.041-2.137-1.713v10.828c0 2.509-2.016 4.544-4.5 4.544h-3c-2.485 0-4.5-2.035-4.5-4.544v-5.423c-1.388.568-2.991.88-4.5.88-1.594 0-3.113-.312-4.5-.88v5.423c0 2.509-2.016 4.544-4.5 4.544h-3c-2.486 0-4.5-2.035-4.5-4.544v-10.601a1.51 1.51 0 0 1 1.5-1.514c.828 0 1.5.681 1.5 1.514v10.601c0 .833.675 1.515 1.5 1.515h3c.825 0 1.5-.682 1.5-1.515v-7.572c0-.066 0-.132.009-.274-.047-.275.037-.653.262-.975a1.485 1.485 0 0 1 2.091-.379 8.904 8.904 0 0 0 5.138 1.628 8.904 8.904 0 0 0 5.137-1.628 1.485 1.485 0 0 1 2.091.379c.225.322.309.7.262.975-.075.142.01.208.01.274v7.572c0 .833.675 1.515 1.5 1.515h3c.825 0 1.5-.682 1.5-1.515v-15.144c0-.833.675-1.514 1.5-1.514.525 0 .993.274 1.256.691 1.444 2.177 2.597 3.483 3.937 4.259Zm2.307-12.522c0 .832-.675 1.514-1.5 1.514s-1.5-.682-1.5-1.514c0-.833.675-1.515 1.5-1.515s1.5.682 1.5 1.515ZM770.866 366.116l.759.067a1.497 1.497 0 0 1 1.369 1.628c-.066.832-.788 1.457-1.613 1.381l-.769-.056c-5.428-.464-9.609-5.13-9.609-10.554 0-1.514.319-2.957.881-4.262-7.322 1.36-12.881 7.84-12.881 15.639v4.837a13.73 13.73 0 0 1-2.959 8.518l-.37.379c-.518.738-1.462.842-2.108.322-.647-.606-.752-1.477-.234-2.13l.37-.464a10.683 10.683 0 0 0 2.301-6.625v-4.837c0-10.251 8.063-18.59 18.131-18.92a10.404 10.404 0 0 1 7.35-3.039c2.85 0 5.447 1.15 7.341 3.029h.178c8.288 0 15 6.777 15 15.144v10.601c0 .833-.675 1.514-1.5 1.514s-1.5-.681-1.5-1.514v-10.601c0-5.991-4.303-10.962-9.956-11.94.478 1.071.787 2.24.89 3.469l.057.776a1.497 1.497 0 0 1-1.369 1.628c-.825.076-1.547-.549-1.613-1.382l-.065-.767c-.328-3.916-3.572-6.928-7.463-6.928-4.134 0-7.481 3.383-7.481 7.553 0 3.928 2.981 7.203 6.863 7.534Zm14.831 14.094c1.237.767 2.634 1.107 4.556 1.107 2.934 0 5.484-.833 7.181-2.574a1.486 1.486 0 0 1 2.119-.019c.591.587.6 1.543.019 2.139-2.438 2.508-5.888 3.483-9.319 3.483-.787 0-1.528-.047-2.25-.161v.076c0 3.313 2.719 6.143 6.084 6.143 2.785 0 5.222-1.922 5.897-4.648l.066-.265a1.487 1.487 0 0 1 1.819-1.098 1.505 1.505 0 0 1 1.087 1.837l-.065.255c-1.004 4.089-4.641 6.948-8.804 6.948-5.015 0-9.084-4.108-9.084-9.172v-.984a10.676 10.676 0 0 1-.862-.474c-.76-.463-1.463-1.041-2.138-1.713v10.828c0 2.509-2.016 4.544-4.5 4.544h-3c-2.484 0-4.5-2.035-4.5-4.544v-5.423c-1.387.568-2.991.88-4.5.88-1.594 0-3.112-.312-4.5-.88v5.423c0 2.509-2.016 4.544-4.5 4.544h-3c-2.485 0-4.5-2.035-4.5-4.544v-10.601a1.51 1.51 0 0 1 1.5-1.514c.829 0 1.5.681 1.5 1.514v10.601c0 .833.675 1.515 1.5 1.515h3c.825 0 1.5-.682 1.5-1.515v-7.572c0-.066 0-.132.009-.274-.046-.275.038-.653.263-.975a1.485 1.485 0 0 1 2.091-.379 8.904 8.904 0 0 0 5.137 1.628 8.907 8.907 0 0 0 5.138-1.628 1.484 1.484 0 0 1 2.09.379c.225.322.31.7.263.975-.075.142.009.208.009.274v7.572c0 .833.675 1.515 1.5 1.515h3c.825 0 1.5-.682 1.5-1.515v-15.144c0-.833.675-1.514 1.5-1.514.525 0 .994.274 1.256.691 1.444 2.177 2.597 3.483 3.938 4.259Zm2.306-12.522c0 .832-.675 1.514-1.5 1.514s-1.5-.682-1.5-1.514c0-.833.675-1.515 1.5-1.515s1.5.682 1.5 1.515ZM889.866 366.116l.759.067a1.497 1.497 0 0 1 1.369 1.628c-.066.832-.787 1.457-1.612 1.381l-.769-.056c-5.428-.464-9.61-5.13-9.61-10.554 0-1.514.319-2.957.882-4.262-7.322 1.36-12.882 7.84-12.882 15.639v4.837c0 3.095-1.043 6.095-2.958 8.518l-.371.379c-.517.738-1.461.842-2.108.322-.646-.606-.751-1.477-.234-2.13l.37-.464a10.677 10.677 0 0 0 2.301-6.625v-4.837c0-10.251 8.063-18.59 18.132-18.92a10.4 10.4 0 0 1 7.35-3.039c2.85 0 5.447 1.15 7.34 3.029h.178c8.288 0 15 6.777 15 15.144v10.601c0 .833-.675 1.514-1.5 1.514s-1.5-.681-1.5-1.514v-10.601c0-5.991-4.303-10.962-9.956-11.94.478 1.071.788 2.24.891 3.469l.056.776a1.497 1.497 0 0 1-1.369 1.628c-.825.076-1.547-.549-1.612-1.382l-.066-.767c-.328-3.916-3.572-6.928-7.462-6.928-4.135 0-7.482 3.383-7.482 7.553 0 3.928 2.982 7.203 6.863 7.534Zm14.831 14.094c1.238.767 2.635 1.107 4.556 1.107 2.935 0 5.485-.833 7.182-2.574a1.485 1.485 0 0 1 2.118-.019c.591.587.6 1.543.019 2.139-2.437 2.508-5.887 3.483-9.319 3.483-.787 0-1.528-.047-2.25-.161v.076c0 3.313 2.719 6.143 6.085 6.143 2.784 0 5.222-1.922 5.897-4.648l.065-.265a1.488 1.488 0 0 1 1.819-1.098 1.505 1.505 0 0 1 1.088 1.837l-.066.255c-1.003 4.089-4.641 6.948-8.803 6.948-5.016 0-9.085-4.108-9.085-9.172v-.984c-.29-.142-.581-.303-.862-.474-.759-.463-1.463-1.041-2.138-1.713v10.828c0 2.509-2.015 4.544-4.5 4.544h-3c-2.484 0-4.5-2.035-4.5-4.544v-5.423a12.17 12.17 0 0 1-4.5.88c-1.593 0-3.112-.312-4.5-.88v5.423c0 2.509-2.015 4.544-4.5 4.544h-3c-2.485 0-4.5-2.035-4.5-4.544v-10.601a1.51 1.51 0 0 1 1.5-1.514c.829 0 1.5.681 1.5 1.514v10.601c0 .833.675 1.515 1.5 1.515h3c.825 0 1.5-.682 1.5-1.515v-7.572c0-.066 0-.132.01-.274-.047-.275.037-.653.262-.975a1.485 1.485 0 0 1 2.091-.379 8.904 8.904 0 0 0 5.137 1.628 8.904 8.904 0 0 0 5.138-1.628 1.485 1.485 0 0 1 2.091.379c.225.322.309.7.262.975-.075.142.009.208.009.274v7.572c0 .833.675 1.515 1.5 1.515h3c.825 0 1.5-.682 1.5-1.515v-15.144c0-.833.675-1.514 1.5-1.514.525 0 .994.274 1.257.691 1.443 2.177 2.597 3.483 3.937 4.259Zm2.306-12.522c0 .832-.675 1.514-1.5 1.514s-1.5-.682-1.5-1.514c0-.833.675-1.515 1.5-1.515s1.5.682 1.5 1.515Z"/></g><path fill="url(#b)" d="M0 0h900v400H0z"/><path fill="#000" d="M88.032 101.44h27.712v8H96.928v9.024h16.896v7.744H96.928v9.728H116V144H88.032v-42.56Zm65.911 9.984c6.975 0 11.391 4.352 11.456 12.352V144h-8.641v-18.944c0-3.776-1.663-5.632-4.416-5.632-2.944 0-5.376 1.984-5.376 6.336V144h-8.64v-18.944c0-3.904-1.408-5.632-4.224-5.632-2.944 0-5.632 1.984-5.632 6.336V144h-8.576v-31.808h7.552l.576 4.608c1.664-3.648 5.504-5.376 8.832-5.376 3.84 0 6.913 1.664 8.385 4.736 1.792-3.584 6.143-4.736 8.704-4.736Zm23.969-12.416v17.6c.576-2.368 3.904-5.184 8.768-5.184 9.792 0 14.592 8.32 14.592 16.512 0 8.512-4.736 16.832-14.656 16.832-4.544 0-8.256-2.752-9.216-5.888l-.576 5.12h-7.552V99.008h8.64Zm7.04 20.16c-3.84 0-7.36 2.752-7.36 7.616v1.984c0 4.352 2.624 8.192 7.36 8.192 5.632 0 7.424-4.608 7.424-8.896 0-4.032-2.112-8.896-7.424-8.896Zm33.845-7.872c6.911 0 15.231 3.968 15.231 16.448l-.127 2.048h-21.952c-.128 4.608 2.88 8 7.296 8 2.304 0 5.248-.768 6.08-4.288h8.192c-1.152 6.784-6.272 11.264-14.08 11.264-10.433 0-16.065-7.424-16.065-16.704 0-9.664 5.824-16.832 15.425-16.768Zm.255 6.592c-3.775 0-6.528 2.752-6.783 6.4h12.928c0-3.776-2.753-6.4-6.145-6.4Zm40.245-18.88h8.64V144h-7.552l-.576-5.12c-.96 3.136-4.672 5.888-9.216 5.888-9.856 0-14.656-8.32-14.656-16.832 0-8.192 4.8-16.512 14.592-16.512 4.864 0 8.192 2.816 8.768 5.184v-17.6Zm-6.976 20.16c-5.376 0-7.488 4.864-7.488 8.896 0 4.288 1.792 8.896 7.488 8.896 4.736 0 7.296-3.84 7.296-8.192v-1.984c0-4.864-3.456-7.616-7.296-7.616Zm42.041-20.16h8.64V144h-7.552l-.576-5.12c-.96 3.136-4.672 5.888-9.216 5.888-9.856 0-14.656-8.32-14.656-16.832 0-8.192 4.8-16.512 14.592-16.512 4.864 0 8.192 2.816 8.768 5.184v-17.6Zm-6.976 20.16c-5.376 0-7.488 4.864-7.488 8.896 0 4.288 1.792 8.896 7.488 8.896 4.736 0 7.296-3.84 7.296-8.192v-1.984c0-4.864-3.456-7.616-7.296-7.616Zm34.106-7.872c6.911 0 15.231 3.968 15.231 16.448l-.127 2.048h-21.952c-.128 4.608 2.88 8 7.296 8 2.303 0 5.248-.768 6.08-4.288h8.192c-1.152 6.784-6.272 11.264-14.08 11.264-10.433 0-16.065-7.424-16.065-16.704 0-9.664 5.824-16.832 15.425-16.768Zm.255 6.592c-3.775 0-6.528 2.752-6.783 6.4h12.928c0-3.776-2.753-6.4-6.145-6.4Zm40.246-18.88h8.64V144h-7.552l-.576-5.12c-.96 3.136-4.672 5.888-9.216 5.888-9.856 0-14.656-8.32-14.656-16.832 0-8.192 4.8-16.512 14.592-16.512 4.864 0 8.192 2.816 8.768 5.184v-17.6Zm-6.976 20.16c-5.376 0-7.488 4.864-7.488 8.896 0 4.288 1.792 8.896 7.488 8.896 4.736 0 7.296-3.84 7.296-8.192v-1.984c0-4.864-3.456-7.616-7.296-7.616ZM105.952 155.44c8.704 0 14.08 6.464 14.08 13.696 0 7.808-5.312 14.208-14.08 14.208h-9.024V198h-8.896v-42.56h17.92Zm-1.088 8.064h-7.936v11.904h7.872c4.288 0 6.08-2.816 6.08-6.08 0-3.264-1.984-5.824-6.016-5.824Zm32.454 35.392c-9.92 0-16.576-7.488-16.576-16.896 0-9.536 6.912-16.832 16.512-16.832 9.857 0 16.577 7.296 16.577 16.832 0 9.408-6.592 16.896-16.513 16.896Zm0-7.744c5.568 0 7.873-4.672 7.873-8.96 0-4.48-2.368-9.344-7.873-9.344-5.568 0-7.872 4.864-7.872 9.344 0 4.352 2.432 8.96 7.872 8.96Zm32.763 7.872c-9.664 0-14.976-5.632-14.592-11.904h7.872c.128 3.52 3.072 5.312 6.144 5.312 2.688 0 4.864-1.28 4.8-3.52-.064-2.048-1.792-2.944-6.336-3.904-7.424-1.408-11.456-3.968-11.456-9.792 0-6.016 4.992-10.112 12.672-10.112 9.152 0 13.568 5.76 13.504 11.84h-7.488c.064-4.224-3.968-5.248-5.952-5.248s-4.928.832-4.928 3.2c0 2.432 2.88 2.944 5.888 3.584 8.768 1.728 12.416 4.672 12.416 10.496 0 6.208-5.248 10.048-12.544 10.048Zm31.766-8.064c.961 0 1.793-.064 2.689-.192v7.168c-1.217.192-2.689.32-4.096.32-7.808 0-12.864-3.2-12.864-11.392V173.36h-4.609v-4.928c6.721-2.624 6.785-9.536 6.721-9.984h8c.064 4.608-1.088 6.464-2.56 7.744h9.024v7.168h-8.064v12.608c0 3.776 1.6 4.992 5.759 4.992Zm17.174-25.6c4.864 0 8.256 2.88 9.152 5.568l.704-4.736h7.488l-.064 28.288c.064 11.456-5.76 17.984-15.744 17.984-10.496.064-15.936-6.528-15.552-13.632h7.744c.384 4.288 3.456 6.336 7.488 6.336 4.736 0 7.616-2.944 7.488-10.112v-3.008c-.576 2.112-3.2 5.12-8.576 5.12-10.24 0-14.336-7.552-14.336-15.424 0-8.64 4.096-16.384 14.208-16.384Zm1.856 7.872c-5.632 0-7.168 4.288-7.168 8.384 0 3.904 1.856 8.064 7.168 8.064 3.84 0 7.168-2.368 7.168-7.296v-1.472c0-4.352-2.432-7.68-7.168-7.68Zm37.194-7.616v8.768c-4.608-.448-9.152.256-9.152 7.104V198h-8.64v-31.808h7.488l.64 5.76c1.024-4.608 4.288-6.848 9.664-6.336Zm15.483-.32c6.912 0 15.232 3.968 15.232 16.448l-.128 2.048h-21.952c-.128 4.608 2.88 8 7.296 8 2.304 0 5.248-.768 6.08-4.288h8.192c-1.152 6.784-6.272 11.264-14.08 11.264-10.432 0-16.064-7.424-16.064-16.704 0-9.664 5.824-16.832 15.424-16.768Zm.256 6.592c-3.776 0-6.528 2.752-6.784 6.4h12.928c0-3.776-2.752-6.4-6.144-6.4Zm31.221 27.136c-9.664 0-14.976-5.632-14.592-11.904h7.872c.128 3.52 3.072 5.312 6.144 5.312 2.688 0 4.864-1.28 4.8-3.52-.064-2.048-1.792-2.944-6.336-3.904-7.424-1.408-11.456-3.968-11.456-9.792 0-6.016 4.992-10.112 12.672-10.112 9.152 0 13.568 5.76 13.504 11.84h-7.488c.064-4.224-3.968-5.248-5.952-5.248s-4.928.832-4.928 3.2c0 2.432 2.88 2.944 5.888 3.584 8.768 1.728 12.416 4.672 12.416 10.496 0 6.208-5.248 10.048-12.544 10.048Z"/><path fill="#666" d="M86.72 274v-14h1.76v12.44h6.78V274h-8.54Zm14.03.12c-2.22 0-3.74-1.26-3.74-3.08 0-1.88 1.58-3.08 4.1-3.08h3.34v-.52c0-1.66-.98-2.52-2.66-2.52-1.54 0-2.52.74-2.72 1.94h-1.76c.24-2.1 1.98-3.44 4.54-3.44 2.7 0 4.26 1.5 4.26 4.02v4.22c0 .66.26.92.9.92h.46V274h-1.08c-1.12 0-1.82-.62-1.92-1.68-.7 1.14-2.08 1.8-3.72 1.8Zm-2.04-3.14c0 1.04.88 1.72 2.28 1.72 1.96 0 3.46-1.28 3.46-3.08v-.36h-3.24c-1.62 0-2.5.66-2.5 1.72Zm14.147 3.18c-2.32 0-3.8-1.5-3.8-3.98v-6.6h1.68v6.2c0 1.94 1 2.86 2.54 2.86 1.74 0 3.1-1.18 3.1-3.32v-5.74h1.68V274h-1.68v-1.56c-.74 1.08-2.02 1.72-3.52 1.72Zm8.253-.16v-10.42h1.68v1.54c.76-1.08 2.02-1.7 3.54-1.7 2.36 0 3.86 1.5 3.86 4.06V274h-1.68v-6.12c0-1.96-1.02-2.92-2.6-2.92-1.76 0-3.12 1.18-3.12 3.3V274h-1.68Zm16.512.16c-2.96 0-5.2-2.18-5.2-5.34 0-3.22 2.32-5.4 5.26-5.4 2.52 0 4.54 1.6 4.84 3.9h-1.72c-.28-1.44-1.56-2.4-3.14-2.4-1.94 0-3.52 1.5-3.52 3.88 0 2.36 1.58 3.86 3.52 3.86 1.62 0 2.94-1.04 3.22-2.4h1.64c-.34 2.3-2.36 3.9-4.9 3.9Zm7.277-.16v-14.6h1.68v5.72c.76-1.08 2.02-1.7 3.54-1.7 2.36 0 3.86 1.5 3.86 4.06V274h-1.68v-6.12c0-1.96-1.02-2.92-2.6-2.92-1.76 0-3.12 1.18-3.12 3.3V274h-1.68Zm17.016 0v-14h5.24c2.94 0 4.84 1.82 4.84 4.36s-1.9 4.36-4.84 4.36h-3.48V274h-1.76Zm1.76-6.84h3.4c2.12 0 3.16-1.06 3.16-2.8 0-1.74-1.04-2.8-3.16-2.8h-3.4v5.6Zm15.062 7c-2.96 0-5.26-2.26-5.26-5.36 0-3.12 2.3-5.38 5.26-5.38 2.94 0 5.24 2.26 5.24 5.38 0 3.1-2.3 5.36-5.24 5.36Zm-3.54-5.36c0 2.28 1.46 3.86 3.54 3.86 2.06 0 3.52-1.58 3.52-3.86 0-2.3-1.46-3.88-3.52-3.88-2.08 0-3.54 1.58-3.54 3.88Zm14.885 5.36c-2.54 0-4.24-1.24-4.4-3.4h1.64c.18 1.28 1.2 1.98 2.84 1.98 1.6 0 2.46-.7 2.46-1.74 0-.8-.5-1.2-2.14-1.5l-1.66-.3c-2.12-.4-2.98-1.34-2.98-2.7 0-1.8 1.54-3.08 4.14-3.08 2.56 0 4.02 1.22 4.2 3.28h-1.64c-.16-1.2-1.06-1.86-2.66-1.86s-2.4.64-2.4 1.58c0 .68.44 1.08 2.1 1.4l1.68.32c2.04.36 3 1.22 3 2.74 0 1.92-1.54 3.28-4.18 3.28Zm9.915-.16c-1.8 0-2.74-.94-2.74-2.74v-6.22h-1.84v-1.46h1.12c.52 0 .72-.2.72-.7v-2.06h1.68v2.76h3.04v1.46h-3.04V271c0 1.1.4 1.5 1.5 1.5h1.54v1.5h-1.98Zm8.503 4.28c-2.78 0-4.72-1.42-5.02-3.56h1.78c.32 1.26 1.6 2.1 3.34 2.1 2.12 0 3.44-1.28 3.44-3.2v-1.48c-.72 1.08-2.1 1.78-3.7 1.78-2.82 0-5.02-2.22-5.02-5.24s2.2-5.26 5.02-5.26c1.6 0 2.98.72 3.7 1.8v-1.64h1.68v10.04c0 2.76-2 4.66-5.22 4.66Zm-3.46-9.6c0 2.2 1.46 3.78 3.54 3.78 2.06 0 3.52-1.58 3.52-3.78 0-2.22-1.46-3.78-3.52-3.78-2.08 0-3.54 1.56-3.54 3.78Zm11.754 5.32v-10.42h1.68v1.8c.66-1.18 1.86-1.8 3.24-1.8h.78v1.54h-.78c-2.02 0-3.24 1.16-3.24 3.58v5.3h-1.68Zm11.923.16c-3.1 0-5.26-2.14-5.26-5.28 0-3.24 2.32-5.46 5.3-5.46 2.82 0 4.9 1.96 4.9 5.06 0 .28-.02.52-.04.68h-8.46c.14 2.32 1.72 3.54 3.62 3.54 1.4 0 2.56-.64 3.1-1.72h1.64c-.58 1.98-2.48 3.18-4.8 3.18Zm-3.46-6.36h6.7c-.24-1.96-1.48-2.94-3.18-2.94-1.74 0-3.16 1.04-3.52 2.94Zm14.552 6.36c-2.54 0-4.24-1.24-4.4-3.4h1.64c.18 1.28 1.2 1.98 2.84 1.98 1.6 0 2.46-.7 2.46-1.74 0-.8-.5-1.2-2.14-1.5l-1.66-.3c-2.12-.4-2.98-1.34-2.98-2.7 0-1.8 1.54-3.08 4.14-3.08 2.56 0 4.02 1.22 4.2 3.28h-1.64c-.16-1.2-1.06-1.86-2.66-1.86s-2.4.64-2.4 1.58c0 .68.44 1.08 2.1 1.4l1.68.32c2.04.36 3 1.22 3 2.74 0 1.92-1.54 3.28-4.18 3.28Zm15.821 0c-2.96 0-5.2-2.18-5.2-5.34 0-3.22 2.32-5.4 5.26-5.4 2.52 0 4.54 1.6 4.84 3.9h-1.72c-.28-1.44-1.56-2.4-3.14-2.4-1.94 0-3.52 1.5-3.52 3.88 0 2.36 1.58 3.86 3.52 3.86 1.62 0 2.94-1.04 3.22-2.4h1.64c-.34 2.3-2.36 3.9-4.9 3.9Zm7.277-.16v-14.6h1.68V274h-1.68Zm8.446.16c-2.32 0-3.8-1.5-3.8-3.98v-6.6h1.68v6.2c0 1.94 1 2.86 2.54 2.86 1.74 0 3.1-1.18 3.1-3.32v-5.74h1.68V274h-1.68v-1.56c-.74 1.08-2.02 1.72-3.52 1.72Zm11.893 0c-2.54 0-4.24-1.24-4.4-3.4h1.64c.18 1.28 1.2 1.98 2.84 1.98 1.6 0 2.46-.7 2.46-1.74 0-.8-.5-1.2-2.14-1.5l-1.66-.3c-2.12-.4-2.98-1.34-2.98-2.7 0-1.8 1.54-3.08 4.14-3.08 2.56 0 4.02 1.22 4.2 3.28h-1.64c-.16-1.2-1.06-1.86-2.66-1.86s-2.4.64-2.4 1.58c0 .68.44 1.08 2.1 1.4l1.68.32c2.04.36 3 1.22 3 2.74 0 1.92-1.54 3.28-4.18 3.28Zm9.915-.16c-1.8 0-2.74-.94-2.74-2.74v-6.22h-1.84v-1.46h1.12c.52 0 .72-.2.72-.7v-2.06h1.68v2.76h3.04v1.46h-3.04V271c0 1.1.4 1.5 1.5 1.5h1.54v1.5h-1.98Zm8.584.16c-3.1 0-5.26-2.14-5.26-5.28 0-3.24 2.32-5.46 5.3-5.46 2.82 0 4.9 1.96 4.9 5.06 0 .28-.02.52-.04.68h-8.46c.14 2.32 1.72 3.54 3.62 3.54 1.4 0 2.56-.64 3.1-1.72h1.64c-.58 1.98-2.48 3.18-4.8 3.18Zm-3.46-6.36h6.7c-.24-1.96-1.48-2.94-3.18-2.94-1.74 0-3.16 1.04-3.52 2.94Zm10.833 6.2v-10.42h1.68v1.8c.66-1.18 1.86-1.8 3.24-1.8h.78v1.54h-.78c-2.02 0-3.24 1.16-3.24 3.58v5.3h-1.68Zm11.296.16c-2.54 0-4.24-1.24-4.4-3.4h1.64c.18 1.28 1.2 1.98 2.84 1.98 1.6 0 2.46-.7 2.46-1.74 0-.8-.5-1.2-2.14-1.5l-1.66-.3c-2.12-.4-2.98-1.34-2.98-2.7 0-1.8 1.54-3.08 4.14-3.08 2.56 0 4.02 1.22 4.2 3.28h-1.64c-.16-1.2-1.06-1.86-2.66-1.86s-2.4.64-2.4 1.58c0 .68.44 1.08 2.1 1.4l1.68.32c2.04.36 3 1.22 3 2.74 0 1.92-1.54 3.28-4.18 3.28Zm6.432 2.56.56-5.08h1.8l-.96 5.08h-1.4ZM90.18 300.16c-2.54 0-4.24-1.24-4.4-3.4h1.64c.18 1.28 1.2 1.98 2.84 1.98 1.6 0 2.46-.7 2.46-1.74 0-.8-.5-1.2-2.14-1.5l-1.66-.3c-2.12-.4-2.98-1.34-2.98-2.7 0-1.8 1.54-3.08 4.14-3.08 2.56 0 4.02 1.22 4.2 3.28h-1.64c-.16-1.2-1.06-1.86-2.66-1.86s-2.4.64-2.4 1.58c0 .68.44 1.08 2.1 1.4l1.68.32c2.04.36 3 1.22 3 2.74 0 1.92-1.54 3.28-4.18 3.28Zm9.915-.16c-1.8 0-2.74-.94-2.74-2.74v-6.22h-1.84v-1.46h1.12c.52 0 .72-.2.72-.7v-2.06h1.68v2.76h3.04v1.46h-3.04V297c0 1.1.4 1.5 1.5 1.5h1.54v1.5h-1.98Zm4.16 0v-10.42h1.68v1.8c.66-1.18 1.86-1.8 3.24-1.8h.78v1.54h-.78c-2.02 0-3.24 1.16-3.24 3.58v5.3h-1.68Zm10.441.12c-2.22 0-3.74-1.26-3.74-3.08 0-1.88 1.58-3.08 4.1-3.08h3.34v-.52c0-1.66-.98-2.52-2.66-2.52-1.54 0-2.52.74-2.72 1.94h-1.76c.24-2.1 1.98-3.44 4.54-3.44 2.7 0 4.26 1.5 4.26 4.02v4.22c0 .66.26.92.9.92h.46V300h-1.08c-1.12 0-1.82-.62-1.92-1.68-.7 1.14-2.08 1.8-3.72 1.8Zm-2.04-3.14c0 1.04.88 1.72 2.28 1.72 1.96 0 3.46-1.28 3.46-3.08v-.36h-3.24c-1.62 0-2.5.66-2.5 1.72Zm10.505 3.02v-10.42h1.68V300h-1.68Zm-.38-13.46c0-.68.56-1.2 1.22-1.2.66 0 1.22.52 1.22 1.2 0 .68-.56 1.2-1.22 1.2-.66 0-1.22-.52-1.22-1.2Zm9.626 17.74c-2.78 0-4.72-1.42-5.02-3.56h1.78c.32 1.26 1.6 2.1 3.34 2.1 2.12 0 3.44-1.28 3.44-3.2v-1.48c-.72 1.08-2.1 1.78-3.7 1.78-2.82 0-5.02-2.22-5.02-5.24s2.2-5.26 5.02-5.26c1.6 0 2.98.72 3.7 1.8v-1.64h1.68v10.04c0 2.76-2 4.66-5.22 4.66Zm-3.46-9.6c0 2.2 1.46 3.78 3.54 3.78 2.06 0 3.52-1.58 3.52-3.78 0-2.22-1.46-3.78-3.52-3.78-2.08 0-3.54 1.56-3.54 3.78ZM140.7 300v-14.6h1.68v5.72c.76-1.08 2.02-1.7 3.54-1.7 2.36 0 3.86 1.5 3.86 4.06V300h-1.68v-6.12c0-1.96-1.02-2.92-2.6-2.92-1.76 0-3.12 1.18-3.12 3.3V300h-1.68Zm15.176 0c-1.8 0-2.74-.94-2.74-2.74v-6.22h-1.84v-1.46h1.12c.52 0 .72-.2.72-.7v-2.06h1.68v2.76h3.04v1.46h-3.04V297c0 1.1.4 1.5 1.5 1.5h1.54v1.5h-1.98Zm9.389-11.86c0-1.8.96-2.74 2.74-2.74h1.98v1.5h-1.52c-1.1 0-1.52.4-1.52 1.5v1.18h3.04v1.46h-3.04V300h-1.68v-8.96h-1.82v-1.46h1.82v-1.44Zm6.627 11.86v-10.42h1.68v1.8c.66-1.18 1.86-1.8 3.24-1.8h.78v1.54h-.78c-2.02 0-3.24 1.16-3.24 3.58v5.3h-1.68Zm11.923.16c-2.96 0-5.26-2.26-5.26-5.36 0-3.12 2.3-5.38 5.26-5.38 2.94 0 5.24 2.26 5.24 5.38 0 3.1-2.3 5.36-5.24 5.36Zm-3.54-5.36c0 2.28 1.46 3.86 3.54 3.86 2.06 0 3.52-1.58 3.52-3.86 0-2.3-1.46-3.88-3.52-3.88-2.08 0-3.54 1.58-3.54 3.88Zm11.167 5.2v-10.42h1.68v1.52c.74-1.06 1.96-1.68 3.32-1.68 1.52 0 2.72.76 3.26 2.14.68-1.34 2.08-2.14 3.64-2.14 2.12 0 3.58 1.46 3.58 4.02V300h-1.68v-6.16c0-1.94-.96-2.88-2.34-2.88-1.56 0-2.88 1.18-2.88 3.26V300h-1.68v-6.16c0-1.94-.98-2.88-2.36-2.88-1.54 0-2.86 1.18-2.86 3.26V300h-1.68Zm23.442 0v-14h1.88l7.58 11.24V286h1.74v14h-1.88l-7.58-11.24V300h-1.74Zm19.029.16c-2.96 0-5.26-2.26-5.26-5.36 0-3.12 2.3-5.38 5.26-5.38 2.94 0 5.24 2.26 5.24 5.38 0 3.1-2.3 5.36-5.24 5.36Zm-3.54-5.36c0 2.28 1.46 3.86 3.54 3.86 2.06 0 3.52-1.58 3.52-3.86 0-2.3-1.46-3.88-3.52-3.88-2.08 0-3.54 1.58-3.54 3.88Zm15.507 5.36c-2.82 0-5.02-2.24-5.02-5.36 0-3.14 2.2-5.38 5.02-5.38 1.58 0 2.96.72 3.68 1.78v-5.8h1.68V300h-1.68v-1.62c-.72 1.06-2.1 1.78-3.68 1.78Zm-3.3-5.36c0 2.28 1.44 3.86 3.52 3.86 2.06 0 3.52-1.58 3.52-3.86 0-2.3-1.46-3.88-3.52-3.88-2.08 0-3.52 1.58-3.52 3.88Zm16.293 5.36c-3.1 0-5.26-2.14-5.26-5.28 0-3.24 2.32-5.46 5.3-5.46 2.82 0 4.9 1.96 4.9 5.06 0 .28-.02.52-.04.68h-8.46c.14 2.32 1.72 3.54 3.62 3.54 1.4 0 2.56-.64 3.1-1.72h1.64c-.58 1.98-2.48 3.18-4.8 3.18Zm-3.46-6.36h6.7c-.24-1.96-1.48-2.94-3.18-2.94-1.74 0-3.16 1.04-3.52 2.94Zm15.354 6.36c-3.14 0-4.98-1.74-4.98-5.14v-.96h1.76v.84c0 2.5 1.18 3.66 3.22 3.66s3.22-1.16 3.22-3.66V286h1.74v9.02c0 3.4-1.82 5.14-4.96 5.14Zm12.858 0c-3.18 0-5.32-1.82-5.44-4.54h1.78c.18 1.88 1.64 2.98 3.76 2.98 2.14 0 3.3-1.12 3.3-2.5 0-1.18-.78-1.96-3.08-2.38l-1.74-.34c-2.54-.46-3.78-1.66-3.78-3.52 0-2.28 1.96-4.02 5-4.02 2.98 0 4.96 1.66 5.18 4.14h-1.78c-.24-1.66-1.48-2.58-3.46-2.58-2 0-3.16.98-3.16 2.36 0 1.1.74 1.78 2.94 2.18l1.74.32c2.64.48 3.92 1.78 3.92 3.72 0 2.4-2.02 4.18-5.18 4.18Zm8.543-.04c-.7 0-1.22-.52-1.22-1.22s.52-1.22 1.22-1.22c.68 0 1.22.52 1.22 1.22s-.54 1.22-1.22 1.22Z"/><path stroke="url(#c)" stroke-linecap="round" stroke-width="4" d="M88 228h74"/><g filter="url(#d)"><path fill="#fff" d="M676 81.619a16 16 0 0 1 16 0l74.067 42.762a16 16 0 0 1 8 13.857v85.524a16 16 0 0 1-8 13.857L692 280.381a16 16 0 0 1-16 0l-74.067-42.762a16 16 0 0 1-8-13.857v-85.524a16 16 0 0 1 8-13.857L676 81.619Z"/></g><g clip-path="url(#e)"><path fill="url(#f)" d="M680.275 142.647c-6.084 0-11.025 5.084-11.025 11.144v.606c0 6.646 5.291 11.75 11.8 11.75h1.475c2.452 0 4.425 2.13 4.425 4.407 0 2.607-1.973 4.406-4.425 4.406h-1.475c-11.413 0-20.65-9.033-20.65-20.563v-.606c0-1.175.11-2.329.295-3.453-12.187 4.151-20.945 15.644-20.945 29.193v3.489c0 2.845-.282 5.709-.845 8.5a20.353 20.353 0 0 1-3.706 8.243l-2.234 2.974a4.43 4.43 0 0 1-6.195.882 4.396 4.396 0 0 1-.885-6.169l2.234-2.974a11.544 11.544 0 0 0 2.108-4.682c.448-2.24.673-4.498.673-6.774v-3.489c0-20.269 15.266-36.976 34.957-39.364A19.906 19.906 0 0 1 680.275 134a21.264 21.264 0 0 1 14.714 5.875h.811c16.299 0 29.5 13.145 29.5 29.375v19.094a4.405 4.405 0 0 1-4.425 4.406 4.405 4.405 0 0 1-4.425-4.406V169.25c0-9.657-6.693-17.774-15.727-19.973.387 1.335.663 2.726.774 4.166l.184 2.221c.203 2.423-1.604 4.553-4.203 4.755-2.268.202-4.407-1.597-4.61-4.186l-.184-2.056c-.535-6.426-5.937-11.365-12.409-11.365v-.165Zm42.075 64.735c0 3.268 2.673 5.93 5.955 5.93 2.913 0 5.402-2.092 5.882-4.957l.018-.165c.406-2.57 2.692-4.039 5.089-3.635 2.415.404 4.056 2.681 3.651 5.067l-.037.184c-1.18 7.105-7.357 12.319-14.603 12.319-8.334 0-14.805-6.609-14.805-14.743v-3.47c-4.591-.752-8.463-2.551-11.8-5.158v20.434c0 4.865-3.964 8.812-8.85 8.812H684c-4.886 0-8.85-3.947-8.85-8.812v-9.602a47.068 47.068 0 0 1-11.8 0v9.602c0 4.865-3.964 8.812-8.85 8.812h-8.85c-4.888 0-8.85-3.947-8.85-8.812v-13.219a4.411 4.411 0 0 1 4.425-4.407 4.406 4.406 0 0 1 4.425 4.407v13.219h8.85V204.5c0-1.285.553-2.497 1.53-3.323.959-.845 2.25-1.212 3.522-1.047l4.48.643c3.466.496 6.969.496 10.436 0l4.48-.643c1.272-.165 2.563.202 3.522 1.047.811.826 1.53 2.038 1.53 3.323v14.688h8.85v-28.072c0-2.277 1.973-4.406 4.425-4.406 2.065 0 3.798 1.56 4.277 3.304 3.301 5.068 9.514 8.409 16.502 8.409 5.55 0 10.528-2.111 14.068-5.434a2.953 2.953 0 0 1 4.167.11c1.124 1.175 1.069 3.029-.277 4.149-3.522 3.47-8.315 5.857-13.662 6.701v3.433Zm-20.65-35.36c0-1.45 1.327-2.937 2.95-2.937 1.622 0 2.95 1.487 2.95 2.937 0 1.781-1.328 2.938-2.95 2.938-1.623 0-2.95-1.157-2.95-2.938Z"/></g></g><rect width="899" height="399" x=".5" y=".5" stroke="#EEE" rx="11.5"/><defs><linearGradient id="b" x1="501" x2="900" y1="0" y2="400" gradientUnits="userSpaceOnUse"><stop stop-color="#fff"/><stop offset=".5" stop-color="#fff" stop-opacity=".75"/><stop offset="1" stop-color="#fff" stop-opacity="0"/></linearGradient><linearGradient id="c" x1="164" x2="86" y1="230" y2="230" gradientUnits="userSpaceOnUse"><stop stop-color="#4908B4"/><stop offset="1" stop-color="#4200FF"/></linearGradient><linearGradient id="f" x1="625" x2="743" y1="134" y2="228" gradientUnits="userSpaceOnUse"><stop stop-color="#4908B4"/><stop offset="1" stop-color="#4200FF"/></linearGradient><clipPath id="a"><rect width="900" height="400" fill="#fff" rx="12"/></clipPath><clipPath id="e"><path fill="#fff" d="M625 134h118v94H625z"/></clipPath><filter id="d" width="618.133" height="641.05" x="374.933" y="-39.525" color-interpolation-filters="sRGB" filterUnits="userSpaceOnUse"><feFlood flood-opacity="0" result="BackgroundImageFix"/><feColorMatrix in="SourceAlpha" result="hardAlpha" values="0 0 0 0 0 0 0 0 0 0 0 0 0 0 0 0 0 0 127 0"/><feOffset dy="2.767"/><feGaussianBlur stdDeviation="3.03"/><feColorMatrix values="0 0 0 0 0 0 0 0 0 0 0 0 0 0 0 0 0 0 0.0196802 0"/><feBlend in2="BackgroundImageFix" result="effect1_dropShadow_4_104"/><feColorMatrix in="SourceAlpha" result="hardAlpha" values="0 0 0 0 0 0 0 0 0 0 0 0 0 0 0 0 0 0 127 0"/><feOffset dy="6.65"/><feGaussianBlur stdDeviation="7.282"/><feColorMatrix values="0 0 0 0 0 0 0 0 0 0 0 0 0 0 0 0 0 0 0.0282725 0"/><feBlend in2="effect1_dropShadow_4_104" result="effect2_dropShadow_4_104"/><feColorMatrix in="SourceAlpha" result="hardAlpha" values="0 0 0 0 0 0 0 0 0 0 0 0 0 0 0 0 0 0 127 0"/><feOffset dy="12.522"/><feGaussianBlur stdDeviation="13.711"/><feColorMatrix values="0 0 0 0 0 0 0 0 0 0 0 0 0 0 0 0 0 0 0.035 0"/><feBlend in2="effect2_dropShadow_4_104" result="effect3_dropShadow_4_104"/><feColorMatrix in="SourceAlpha" result="hardAlpha" values="0 0 0 0 0 0 0 0 0 0 0 0 0 0 0 0 0 0 127 0"/><feOffset dy="22.336"/><feGaussianBlur stdDeviation="24.458"/><feColorMatrix values="0 0 0 0 0 0 0 0 0 0 0 0 0 0 0 0 0 0 0.0417275 0"/><feBlend in2="effect3_dropShadow_4_104" result="effect4_dropShadow_4_104"/><feColorMatrix in="SourceAlpha" result="hardAlpha" values="0 0 0 0 0 0 0 0 0 0 0 0 0 0 0 0 0 0 127 0"/><feOffset dy="41.778"/><feGaussianBlur stdDeviation="45.746"/><feColorMatrix values="0 0 0 0 0 0 0 0 0 0 0 0 0 0 0 0 0 0 0.0503198 0"/><feBlend in2="effect4_dropShadow_4_104" result="effect5_dropShadow_4_104"/><feColorMatrix in="SourceAlpha" result="hardAlpha" values="0 0 0 0 0 0 0 0 0 0 0 0 0 0 0 0 0 0 127 0"/><feOffset dy="100"/><feGaussianBlur stdDeviation="109.5"/><feColorMatrix values="0 0 0 0 0 0 0 0 0 0 0 0 0 0 0 0 0 0 0.07 0"/><feBlend in2="effect5_dropShadow_4_104" result="effect6_dropShadow_4_104"/><feBlend in="SourceGraphic" in2="effect6_dropShadow_4_104" result="shape"/></filter></defs></svg>