<svg xmlns="http://www.w3.org/2000/svg" viewBox="0 0 203.97 104.53"><defs><style>.cls-1{fill:#f15b2a;}.cls-2{fill:#fff;}.cls-3{fill:#231f20;}</style></defs><g id="Layer_2" data-name="Layer 2"><g id="Layer_1-2" data-name="Layer 1"><path class="cls-1" d="M98.44,104.53H6.09A6.06,6.06,0,0,1,0,98.44V6.09A6.06,6.06,0,0,1,6.09,0H98.44a6.06,6.06,0,0,1,6.09,6.09V98.44A6.06,6.06,0,0,1,98.44,104.53Z"/><polygon class="cls-2" points="52.3 52.3 52.3 64.32 83.65 46.22 83.65 34.2 52.3 52.3"/><polygon class="cls-2" points="73.18 28.11 52.3 40.21 31.35 28.11 20.87 34.2 52.3 52.3 83.65 34.2 73.18 28.11"/><polygon class="cls-2" points="52.3 64.32 31.35 52.3 31.35 64.32 20.87 70.4 20.87 34.2 52.3 52.3 52.3 64.32"/><polygon class="cls-2" points="31.35 76.41 41.83 70.4 31.35 64.32 20.87 70.4 31.35 76.41"/><polygon class="cls-2" points="41.83 58.31 41.83 70.4 31.35 64.32 31.35 52.3 41.83 58.31"/><polygon class="cls-2" points="73.18 64.32 62.7 58.31 73.18 52.3 83.65 58.31 73.18 64.32"/><polygon class="cls-2" points="73.18 76.41 83.65 70.4 83.65 58.31 73.18 64.32 73.18 76.41"/><polygon class="cls-2" points="62.7 70.4 62.7 58.31 73.18 64.32 73.18 76.41 62.7 70.4"/><path class="cls-1" d="M84.27,58.31a.67.67,0,0,0-.31-.54L74.49,52.3,84,46.83a.52.52,0,0,0,.31-.54V34.2a.67.67,0,0,0-.31-.54l-10.48-6a.9.9,0,0,0-.61,0L52.3,39.44,31.66,27.58a.83.83,0,0,0-.62,0l-10.47,6h0a.76.76,0,0,0-.31.39V70.48a.73.73,0,0,0,.31.38l10.47,6a.64.64,0,0,0,.62,0l10.47-6a.73.73,0,0,0,.31-.38V59.39l9.48,5.47a.48.48,0,0,0,.3.07.49.49,0,0,0,.31-.07L62,59.39V70.33a.63.63,0,0,0,.3.53l10.48,6a.64.64,0,0,0,.62,0h0L84,70.94a.52.52,0,0,0,.31-.54Zm-1.93,0-9.16,5.31L64,58.31l1.08-.62L73.18,53Zm-40.21-.54h0L31.66,51.69a.83.83,0,0,0-.62,0,.5.5,0,0,0-.31.53V63.93l-9.16,5.32v-34l30,17.33V63.24ZM31.35,28.89,51.92,40.75a.9.9,0,0,0,.61,0L73.18,28.89l9.16,5.31L52.22,51.53l-30-17.33Zm0,46.83L22.18,70.4l9.17-5.31,9.17,5.31Zm9.86-17V69.25L32,64V53.46Zm11.71-6.08L82.65,35.43l.31-.15V45.83L72.87,51.69h0L62.39,57.77h0l-9.47,5.47Zm10.47,6.78,9.17,5.31V75.26l-9.17-5.32Zm10.4,15.94V64.78L83,59.46V70Z"/><path class="cls-3" d="M122.32,21.49c1.69.46,2.62,1.39,2.62,2.7v5.93c0,2.31-1.16,3.54-3.55,3.54h-6.31V10h5.39c2.77,0,4.24,1.39,4.24,4.24v4.54c0,1.39-.77,2.16-2.24,2.47v.23ZM118.16,20h1.46c1.24,0,1.77-.54,1.77-1.69v-3.7c0-1.16-.46-1.7-1.38-1.7h-1.85Zm0,10.78h2.39c.84,0,1.23-.3,1.23-1V24.49c0-1.07-.62-1.69-1.85-1.69h-1.77v7.93Z"/><path class="cls-3" d="M137.8,10V29.12c0,3-1.23,4.46-3.77,4.46h-2.7c-2.54,0-3.77-1.46-3.77-4.46V10h3.15V29.19c0,1,.47,1.54,1.39,1.54h1.31c.85,0,1.31-.54,1.31-1.54V10Z"/><path class="cls-3" d="M140.73,10h6.16c2.39,0,3.62,1.31,3.62,4V19.8c0,2.08-.62,3.39-1.85,3.92l2.24,9.79h-3L145.81,24h-1.92v9.55h-3.16Zm3.16,11.4H146c.92,0,1.38-.54,1.38-1.69V14.64c0-1.16-.46-1.7-1.38-1.7h-2.08Z"/><path class="cls-3" d="M153.13,33.58V10H161v2.85h-4.7V20h4.16v2.85h-4.16v7.85H161v2.85Z"/><path class="cls-3" d="M166.22,33.58h-3.15V14.1c0-2.7,1.23-4,3.77-4h2.39c2.54,0,3.77,1.31,3.77,4V33.58h-3.16V25h-3.62v8.62Zm3.62-11.47V14.25a1.23,1.23,0,0,0-1.38-1.39h-.85a1.23,1.23,0,0,0-1.39,1.39v7.86Z"/><path class="cls-3" d="M186,10V29.12c0,3-1.23,4.46-3.77,4.46h-2.7c-2.54,0-3.77-1.46-3.77-4.46V10h3.15V29.19c0,1,.47,1.54,1.39,1.54h1.31c.85,0,1.31-.54,1.31-1.54V10Z"/><path class="cls-3" d="M121.39,54.38l2.93-13.86h3.47V64.09h-3.16l.31-15.41-2.39,11.17h-2.39L117.85,48.6,118.16,64H115V40.52h3.47Z"/><path class="cls-3" d="M134.41,64.09c-2.54,0-3.77-1.31-3.77-4V44.52c0-2.69,1.23-4,3.77-4h3c2.54,0,3.77,1.31,3.77,4V60.08c0,2.7-1.23,4-3.77,4Zm.77-2.85h1.62c.85,0,1.23-.47,1.23-1.39V44.75a1.22,1.22,0,0,0-1.38-1.38h-1.47a1.22,1.22,0,0,0-1.38,1.38v15.1C133.72,60.77,134.18,61.24,135.18,61.24Z"/><path class="cls-3" d="M144,64.09V40.52h7.78v2.85h-4.62v7.16h4.16v2.85h-4.16v7.86h4.7v2.85Z"/><path class="cls-3" d="M154.05,64.09V40.52h3.16V64.09Z"/><path class="cls-3" d="M167.61,64.09h-7.47V40.52h3.16V61.24h4.31v2.85Z"/><path class="cls-3" d="M169.38,64.09V40.52h3.16V64.09Z"/><path class="cls-3" d="M174.39,61.24h2.08c.92,0,1.39-.54,1.39-1.7v-19H181V60.08c0,2.62-1.23,4-3.62,4h-3V61.24Z"/><path class="cls-3" d="M187.1,64.09h-3.16V40.52h3.16Zm7.24,0h-3.16l-3.93-11.56V52.3l3.31-11.86h2.85L190.1,52.15Z"/><path class="cls-3" d="M196.19,64.09V40.52H204v2.85h-4.7v7.16h4.16v2.85h-4.16v7.86H204v2.85Z"/><path class="cls-3" d="M115,94.51V70.94h5.47c2.93,0,4.47,1.54,4.47,4.55V91.12c0,2.31-1.23,3.39-3.78,3.39Zm3.16-2.85h2.39c.84,0,1.23-.38,1.23-1.08v-15c0-1.15-.46-1.69-1.39-1.69h-2.23V91.66Z"/><path class="cls-3" d="M127.71,94.51V70.94h3.16V94.51Z"/><path class="cls-3" d="M140.34,82.34V70.94h3.16V94.51h-3.16v-4.7L137,79.11v15.4H133.8V70.94H137Z"/><path class="cls-3" d="M151.28,85.89V83h4.78V94.51h-6.17c-2.46,0-3.62-1.31-3.62-4V75c0-2.7,1.24-4,3.62-4h2.16c2.7,0,4,1.39,4,4.08v2.55H152.9v-2c0-1.15-.46-1.69-1.31-1.69h-.77c-.93,0-1.39.54-1.39,1.69V90c0,1.15.46,1.69,1.39,1.69H153V85.89Z"/><path class="cls-3" d="M158.68,94.51V70.94h7.78v2.85h-4.7V81h4.16v2.85h-4.16v7.85h4.7v2.85Z"/><path class="cls-3" d="M175.24,82.34V70.94h3.15V94.51h-3.15v-4.7l-3.39-10.7v15.4h-3.16V70.94h3.16Z"/></g></g></svg>