<svg width="328" height="107" viewBox="0 0 328 107" fill="none" xmlns="http://www.w3.org/2000/svg">
<path fill-rule="evenodd" clip-rule="evenodd" d="M48.3778 107L45.1932 106.789C36.3236 106.2 25.0433 102.732 15.9081 94.319C6.62854 85.773 0 72.5209 0 53.3071C0 29.4 9.11449 15.6934 19.9095 8.19215C30.3599 0.930422 41.6351 0 45.5353 0H45.7816L46.0267 0.0234268C52.7497 0.665908 57.9671 2.97423 61.0616 7.94983C63.2402 11.4528 63.9501 15.7095 64.1556 20.0155C65.6032 20.5868 67.4329 21.3093 69.4164 22.0936C74.0736 23.935 79.5923 26.1221 83 27.4899L81.0123 37.5189L44.0077 37.0688L44.8764 33.3641C43.8504 33.8835 42.6908 34.176 41.4631 34.176C39.4575 34.176 37.6335 33.3953 36.2766 32.1203C36.5125 33.6659 36.9967 35.2404 37.9395 36.9399C39.8261 40.3403 43.8865 44.8116 52.9568 50.1135L54.3096 50.9042L54.9999 52.3143C59.1399 60.7709 63.1225 81.9199 49.9993 104.242L48.3778 107ZM59.0479 23.5889C59.0479 12.6303 57.1968 6.31513 45.5353 5.20069C38.8716 5.20069 5.18288 8.544 5.18288 53.3071C5.18288 89.1176 29.6782 100.547 45.5353 101.599C57.6781 80.9451 53.8033 61.6654 50.348 54.6073C31.2824 43.4629 30.7271 34.3617 30.9122 27.6751C31.0973 20.9885 35.3547 17.831 42.3886 17.831C46.8703 17.831 49.6533 23.3684 50.7565 26.7488C51.0385 27.6128 51.2107 28.3358 51.2735 28.7896L50.5331 31.9471L76.7619 32.2661L76.9389 30.6672C74.007 29.5008 70.6105 28.1556 67.5697 26.9533C62.887 25.1017 59.0479 23.5889 59.0479 23.5889Z" fill="white"/>
<path fill-rule="evenodd" clip-rule="evenodd" d="M33.3721 33.7496C33.708 35.3018 34.2806 36.9327 35.2369 38.6565C37.539 42.8058 42.1727 47.6776 51.5568 53.1629L51.9917 53.417L52.2135 53.8703C55.8889 61.3779 59.7983 81.2585 47.3404 102.449L46.8192 103.335L45.7956 103.267C37.5646 102.721 27.0932 99.4888 18.6565 91.719C10.1733 83.9064 3.88721 71.633 3.88721 53.3071C3.88721 30.4352 12.5319 17.8686 22.282 11.0935C31.9213 4.39528 42.391 3.52905 45.9056 3.52905H45.9847L46.0635 3.53658C52.1811 4.12121 56.1504 6.12354 58.4482 9.81821C60.5009 13.1187 61.0187 17.4926 61.078 22.517C61.366 22.6502 61.7124 22.8101 62.1084 22.9924L62.1651 23.0185L75.922 29.1537C76.9903 29.6073 78.0033 30.0282 78.9173 30.395L78.2986 33.6188H48.8L49.9446 28.7372C49.7322 27.6808 49.0137 25.4081 47.7693 23.3378C46.358 20.99 44.6466 19.5026 42.7588 19.5026C39.4609 19.5026 37.0721 20.2462 35.5114 21.536C33.9972 22.7872 33.0301 24.7455 32.9477 27.7216C32.9284 28.4213 32.9178 29.1368 32.936 29.8699C33.102 30.789 33.2635 32.0932 33.3721 33.7496Z" fill="black"/>
<path d="M44.0545 26.5607C44.0545 27.9968 42.8942 29.161 41.463 29.161C40.0318 29.161 38.8716 27.9968 38.8716 26.5607C38.8716 25.1245 40.0318 23.9603 41.463 23.9603C42.8942 23.9603 44.0545 25.1245 44.0545 26.5607Z" fill="black"/>
<path fill-rule="evenodd" clip-rule="evenodd" d="M53.0555 30.2755L53.3697 28.9093L57.8487 24.7521L70.2337 30.2755H53.0555Z" fill="#FF4E00"/>
<path fill-rule="evenodd" clip-rule="evenodd" d="M30.8743 60.9054C32.4668 53.5405 33.1793 47.1681 33.4133 42.0585C36.2847 46.3379 41.1898 50.9114 49.4332 55.7892C52.5183 62.5449 55.8316 79.9463 45.5003 98.9306C42.2938 95.3681 38.1746 89.8426 35.0376 83.4989C31.4686 76.2819 29.2874 68.244 30.8743 60.9054Z" fill="white"/>
<path d="M123.416 46.512C111.384 46.576 105.752 39.856 106.2 32.112H113.752C113.624 37.68 117.336 40.24 122.904 40.24C128.408 40.24 130.52 37.232 130.52 34.16C130.52 29.296 124.632 28.72 119.896 27.504C112.472 25.584 107.288 22.384 107.288 15.024C107.288 8.24 113.56 2.864 122.84 2.928C132.824 2.992 138.776 10.032 138.648 17.456H131.416C131.288 13.424 128.408 9.328 122.392 9.328C117.336 9.328 114.648 11.504 114.712 14.96C114.776 20.08 122.968 20.912 127.32 22.128C131.736 23.344 138.2 25.968 138.2 34.224C138.2 41.072 132.696 46.448 123.416 46.512ZM159.923 39.792C160.755 39.792 161.523 39.728 162.355 39.664V45.936C161.075 46.128 159.795 46.192 158.515 46.192C151.219 46.192 146.675 42.992 146.675 35.76V20.72H141.875V16.56C148.083 13.872 148.467 7.152 148.467 6.768H155.443C155.635 11.12 154.355 13.04 152.883 14.384H161.971V20.72H153.907V34.992C153.907 38.704 155.507 39.792 159.923 39.792ZM192.024 14.384V46H185.688L185.049 41.264C183.385 44.656 179.928 46.768 176.024 46.768C169.752 46.768 165.272 42.672 165.272 34.928V14.384H172.568V33.84C172.568 38.32 175.192 39.984 177.816 39.984C180.952 39.984 184.729 37.552 184.729 32.624V14.384H192.024ZM220.902 1.328H228.262V46H221.734L221.286 41.072C220.39 44.016 216.614 46.768 212.262 46.768C201.766 46.768 197.158 37.68 197.158 30.128C197.158 22 201.894 13.616 212.326 13.616C217.126 13.616 220.326 16.304 220.902 18.672V1.328ZM212.966 20.4C207.27 20.4 204.71 25.712 204.71 30.128C204.71 34.608 206.502 39.92 212.966 39.92C218.278 39.92 221.094 35.952 221.094 31.088V28.656C221.094 23.344 217.446 20.4 212.966 20.4ZM242.593 1.328V9.456H234.081V1.328H242.593ZM242.017 14.384V46H234.657V14.384H242.017ZM263.416 46.832C253.752 46.832 247.16 39.216 247.16 30.128C247.16 20.976 253.88 13.424 263.352 13.424C273.016 13.424 279.608 20.976 279.608 30.128C279.608 39.216 273.016 46.832 263.416 46.832ZM263.416 40.112C269.368 40.112 272.056 35.12 272.056 30.256C272.056 25.264 269.176 20.08 263.416 20.08C257.592 20.08 254.712 25.264 254.712 30.256C254.712 35.184 257.4 40.112 263.416 40.112ZM134.936 60.44V67.416H115.224V78.744H133.464V85.592H115.224V103H107.48V60.44H134.936ZM148.403 103.64C142.515 103.64 137.459 99.992 137.459 93.848C137.459 87.256 143.347 83.992 149.363 83.992C152.179 83.992 154.867 84.696 156.787 86.04V82.456C156.787 78.104 154.227 76.568 150.899 76.568C147.315 76.568 145.203 78.872 145.203 82.072H138.419C138.035 76.76 141.491 70.616 151.283 70.616C158.515 70.616 163.891 74.52 163.891 83.16V95.704C163.891 96.6 164.403 97.816 166.579 97.752V103.192L164.915 103.384C160.627 103.64 156.915 101.08 157.107 98.072C155.507 102.232 151.795 103.64 148.403 103.64ZM149.299 97.56C151.859 97.624 156.723 96.408 156.723 91.544C155.123 90.264 152.563 89.56 149.875 89.56C146.995 89.56 144.243 91.032 144.243 93.72C144.243 96.664 146.995 97.496 149.299 97.56ZM177.765 58.328V103H170.405V58.328H177.765ZM191.548 58.328V84.696L202.684 71.384H211.324L200.252 85.016L212.732 103H204.092L195.516 90.136L191.548 94.872V103H184.188V58.328H191.548ZM222.455 58.328V103H215.095V58.328H222.455ZM238.157 103.64C232.269 103.64 227.213 99.992 227.213 93.848C227.213 87.256 233.101 83.992 239.117 83.992C241.933 83.992 244.622 84.696 246.542 86.04V82.456C246.542 78.104 243.981 76.568 240.653 76.568C237.069 76.568 234.957 78.872 234.957 82.072H228.173C227.789 76.76 231.245 70.616 241.037 70.616C248.269 70.616 253.646 74.52 253.646 83.16V95.704C253.646 96.6 254.157 97.816 256.333 97.752V103.192L254.67 103.384C250.382 103.64 246.67 101.08 246.861 98.072C245.261 102.232 241.549 103.64 238.157 103.64ZM239.053 97.56C241.613 97.624 246.477 96.408 246.477 91.544C244.877 90.264 242.317 89.56 239.629 89.56C236.749 89.56 233.997 91.032 233.997 93.72C233.997 96.664 236.749 97.496 239.053 97.56ZM260.16 103V71.384H266.56L267.136 77.016C268.352 72.856 272.512 70.616 276.672 70.616C283.904 70.616 287.68 75.224 287.68 82.968V103H280.32V83.864C280.32 79.384 278.016 77.528 275.008 77.528C271.616 77.528 267.52 79.768 267.52 84.952V103H260.16ZM316.219 58.328H323.579V103H317.051L316.603 98.072C315.707 101.016 311.931 103.768 307.579 103.768C297.083 103.768 292.475 94.68 292.475 87.128C292.475 79 297.211 70.616 307.643 70.616C312.443 70.616 315.643 73.304 316.219 75.672V58.328ZM308.283 77.4C302.587 77.4 300.027 82.712 300.027 87.128C300.027 91.608 301.819 96.92 308.283 96.92C313.595 96.92 316.411 92.952 316.411 88.088V85.656C316.411 80.344 312.763 77.4 308.283 77.4Z" fill="black"/>
</svg>
